<?xml version="1.0" encoding="utf-8"?>
<!-- Generator: Adobe Illustrator 15.0.0, SVG Export Plug-In . SVG Version: 6.00 Build 0)  -->
<!DOCTYPE svg PUBLIC "-//W3C//DTD SVG 1.1//EN" "http://www.w3.org/Graphics/SVG/1.1/DTD/svg11.dtd">
<svg version="1.1" id="图层_1" xmlns="http://www.w3.org/2000/svg" xmlns:xlink="http://www.w3.org/1999/xlink" x="0px" y="0px"
	 width="11px" height="192px" viewBox="0 0 11 192" enable-background="new 0 0 11 192" xml:space="preserve">
<title>p_pag_tools</title>
<desc>Created with Sketch.</desc>
<g id="Page-1">
	<g id="p_pag_tools">
		<polygon id="Triangle-21" fill="#686868" points="0,0 8,0 4,8 		"/>
		<polygon id="Triangle-21_1_" opacity="0.15" fill="#686868" enable-background="new    " points="0,18 8,18 4,26 		"/>
		<path id="_x7C__x3C_" fill="#686868" d="M0,36h1.68v13.279H0V36z M7.057,41.894c-0.238,0.117-0.51,0.21-0.813,0.28
			c0.303,0.07,0.574,0.164,0.813,0.28l1.987,1.078c0.126,0.061,0.216,0.136,0.27,0.228c0.054,0.091,0.081,0.19,0.081,0.297v1.505
			l-5.67-2.961v-0.847l5.67-2.968v1.505c0,0.107-0.027,0.207-0.081,0.297c-0.054,0.091-0.144,0.169-0.27,0.235L7.057,41.894z"/>
		<path id="_x3C_" fill="#686868" d="M3.266,62.995c-0.238,0.117-0.509,0.21-0.812,0.28c0.303,0.07,0.574,0.164,0.812,0.28
			l1.988,1.078c0.126,0.061,0.216,0.137,0.27,0.228c0.054,0.091,0.081,0.19,0.081,0.298v1.505l-5.67-2.961v-0.847l5.67-2.968v1.505
			c0,0.107-0.027,0.207-0.081,0.297s-0.144,0.169-0.27,0.234L3.266,62.995z"/>
		<path id="_x7C__x3C__1_" opacity="0.15" fill="#686868" enable-background="new    " d="M0,77h1.68v13.279H0V77z M7.057,82.894
			c-0.238,0.117-0.51,0.21-0.813,0.28c0.303,0.07,0.574,0.164,0.813,0.28l1.987,1.078c0.126,0.061,0.216,0.136,0.27,0.228
			c0.054,0.091,0.081,0.19,0.081,0.297v1.505l-5.67-2.961v-0.847l5.67-2.968v1.505c0,0.107-0.027,0.207-0.081,0.297
			c-0.054,0.091-0.144,0.169-0.27,0.235L7.057,82.894z"/>
		<path id="_x3C__1_" opacity="0.15" fill="#686868" enable-background="new    " d="M3.266,103.995
			c-0.238,0.116-0.509,0.21-0.812,0.28c0.303,0.069,0.574,0.163,0.812,0.279l1.988,1.078c0.126,0.061,0.216,0.137,0.27,0.228
			s0.081,0.19,0.081,0.298v1.505l-5.67-2.961v-0.847l5.67-2.969v1.506c0,0.107-0.027,0.206-0.081,0.297s-0.144,0.169-0.27,0.234
			L3.266,103.995z"/>
		<path id="_x3E_" fill="#686868" d="M5.67,144.855v0.847L0,148.663v-1.505c0-0.107,0.027-0.207,0.081-0.298s0.144-0.167,0.27-0.228
			l1.988-1.078c0.238-0.116,0.509-0.21,0.812-0.279c-0.303-0.07-0.574-0.164-0.812-0.28l-1.988-1.071
			c-0.126-0.065-0.216-0.144-0.27-0.234S0,143.5,0,143.393v-1.506L5.67,144.855z"/>
		<path id="_x3E__x7C_" fill="#686868" d="M5.67,124.361v0.848L0,128.17v-1.505c0-0.107,0.027-0.206,0.081-0.298
			c0.054-0.091,0.144-0.166,0.27-0.227l1.988-1.078c0.238-0.117,0.509-0.211,0.812-0.28c-0.303-0.07-0.574-0.163-0.812-0.28
			l-1.988-1.07c-0.126-0.066-0.216-0.145-0.27-0.235S0,123.006,0,122.898v-1.504L5.67,124.361z M7.714,118.607h1.681v13.279H7.714
			V118.607z"/>
		<path id="_x3E__1_" opacity="0.15" fill="#686868" enable-background="new    " d="M5.67,185.855v0.847L0,189.663v-1.505
			c0-0.107,0.027-0.207,0.081-0.298s0.144-0.167,0.27-0.228l1.988-1.078c0.238-0.116,0.509-0.21,0.812-0.279
			c-0.303-0.07-0.574-0.164-0.812-0.28l-1.988-1.071c-0.126-0.065-0.216-0.144-0.27-0.234S0,184.5,0,184.393v-1.506L5.67,185.855z"
			/>
		<path id="_x3E__x7C__1_" opacity="0.15" fill="#686868" enable-background="new    " d="M5.67,165.361v0.848L0,169.17v-1.505
			c0-0.107,0.027-0.206,0.081-0.298c0.054-0.091,0.144-0.166,0.27-0.227l1.988-1.078c0.238-0.117,0.509-0.211,0.812-0.28
			c-0.303-0.07-0.574-0.163-0.812-0.28l-1.988-1.07c-0.126-0.066-0.216-0.145-0.27-0.235S0,164.006,0,163.898v-1.504L5.67,165.361z
			 M7.714,159.607h1.681v13.279H7.714V159.607z"/>
	</g>
</g>
</svg>
