<?xml version="1.0" encoding="utf-8"?>
<!-- Generator: Adobe Illustrator 15.0.0, SVG Export Plug-In . SVG Version: 6.00 Build 0)  -->
<!DOCTYPE svg PUBLIC "-//W3C//DTD SVG 1.1//EN" "http://www.w3.org/Graphics/SVG/1.1/DTD/svg11.dtd">
<svg version="1.1" id="图层_1" xmlns="http://www.w3.org/2000/svg" xmlns:xlink="http://www.w3.org/1999/xlink" x="0px" y="0px"
	 width="30px" height="30px" viewBox="0 0 30 30" enable-background="new 0 0 30 30" xml:space="preserve">
<polygon fill="none" stroke="#999999" stroke-miterlimit="10" points="24.006,27.068 17.006,27.068 17.006,9.867 24.006,9.868 "/>
<title>acc_member</title>
<desc>Created with Sketch.</desc>
<rect x="2.833" y="3" fill="none" stroke="#999999" stroke-miterlimit="10" width="13.833" height="24.068"/>
<g id="Page-1">
	<g id="acc_contacts">
		<g id="Group" transform="translate(5.000000, 5.000000)">
			<ellipse id="Oval-1" fill="#999999" stroke="#FFFFFF" cx="18.887" cy="15.733" rx="2.605" ry="2.569"/>
			<path id="Oval-1_1_" fill="#999999" stroke="#FFFFFF" d="M23.576,22.928c1.268,0-2.1-4.625-4.689-4.625
				c-2.588,0-6.709,4.216-4.688,4.625C16.217,23.336,22.311,22.928,23.576,22.928z"/>
		</g>
	</g>
</g>
<rect x="8.052" y="20.766" fill="none" stroke="#999999" stroke-miterlimit="10" width="3.948" height="6.117"/>
<rect x="19.563" y="15.701" fill="#999999" width="1.888" height="1.668"/>
<rect x="5.4" y="6.249" fill="#999999" width="1.888" height="1.668"/>
<rect x="8.979" y="6.248" fill="#999999" width="1.887" height="1.668"/>
<rect x="12.484" y="6.248" fill="#999999" width="1.887" height="1.668"/>
<rect x="5.541" y="9.034" fill="#999999" width="1.887" height="1.667"/>
<rect x="9.119" y="9.033" fill="#999999" width="1.887" height="1.668"/>
<rect x="12.625" y="9.033" fill="#999999" width="1.887" height="1.668"/>
<rect x="5.577" y="11.915" fill="#999999" width="1.887" height="1.667"/>
<rect x="9.156" y="11.915" fill="#999999" width="1.887" height="1.668"/>
<rect x="12.662" y="11.914" fill="#999999" width="1.887" height="1.668"/>
<rect x="5.577" y="14.868" fill="#999999" width="1.887" height="1.667"/>
<rect x="9.156" y="14.867" fill="#999999" width="1.887" height="1.668"/>
<rect x="12.662" y="14.867" fill="#999999" width="1.887" height="1.668"/>
<rect x="19.563" y="12.451" fill="#999999" width="1.888" height="1.668"/>
</svg>
