<?xml version="1.0" encoding="utf-8"?>
<!-- Generator: Adobe Illustrator 15.0.0, SVG Export Plug-In . SVG Version: 6.00 Build 0)  -->
<!DOCTYPE svg PUBLIC "-//W3C//DTD SVG 1.1//EN" "http://www.w3.org/Graphics/SVG/1.1/DTD/svg11.dtd">
<svg version="1.1" id="图层_1" xmlns="http://www.w3.org/2000/svg" xmlns:xlink="http://www.w3.org/1999/xlink" x="0px" y="0px"
	 width="30px" height="30px" viewBox="0 0 30 30" enable-background="new 0 0 30 30" xml:space="preserve">
<title>acc_default_module</title>
<desc>Created with Sketch.</desc>
<polygon fill="#999999" points="2.396,2.396 2.396,21.337 8.662,27.604 2.396,27.604 2.396,27.604 27.604,27.604 27.604,2.396 "/>
<polygon fill="#CCCCCC" points="2.396,21.337 8.662,21.337 8.662,27.604 "/>
<g>
	<path fill="#FFFFFF" d="M19.904,12.533c-0.517,0.705-1.025,1.301-1.525,1.787c-0.986,0.949-1.965,1.422-2.935,1.422
		c-0.846,0-1.503-0.31-1.973-0.93c-0.297-0.401-0.446-0.875-0.446-1.423c0-1.35,0.548-2.838,1.644-4.468
		c1.221-1.812,2.692-3.203,4.413-4.176c1.127-0.632,2.215-0.949,3.265-0.949c0.656,0,1.204,0.159,1.644,0.475
		c0.376,0.279,0.563,0.596,0.563,0.948c0,0.268-0.133,0.638-0.398,1.112c0.234,0.255,0.35,0.48,0.35,0.675
		c0,0.254-0.218,0.674-0.656,1.258c-0.454,0.596-0.908,1.386-1.36,2.371c-0.486,1.045-0.729,1.884-0.729,2.517
		c0,0.51,0.079,1.216,0.588,1.258c0.963,0.08,1.763-1.086,2.328-1.049c0.445,0.029,1.479,0.065,1.902,1.26
		c0.127,0.356-0.227,1.161-0.932,0.836c-0.68-0.313-0.749-0.458-1.266-0.215c-0.764,0.359-2.428,1.468-3.817,0.28
		c-0.524-0.448-0.751-1.069-0.751-1.787C19.812,13.493,19.842,13.092,19.904,12.533z M24.155,6.332
		c-1.264,0.012-1.707-0.264-1.926-0.392c-0.22-0.128-0.454-0.191-0.705-0.191c-1.188,0-2.481,0.809-3.874,2.425
		c-1.534,1.787-2.301,3.301-2.301,4.541c0,0.304,0.074,0.535,0.224,0.694c0.148,0.158,0.372,0.236,0.669,0.236
		c0.751,0,1.628-0.62,2.629-1.86c0.564-0.681,1.261-1.684,2.089-3.009c0.549-0.863,0.94-1.442,1.198-1.715
		C22.813,6.37,23.766,6.335,24.155,6.332z"/>
</g>
</svg>
