<?xml version="1.0" encoding="utf-8"?>
<!-- Generator: Adobe Illustrator 15.0.0, SVG Export Plug-In . SVG Version: 6.00 Build 0)  -->
<!DOCTYPE svg PUBLIC "-//W3C//DTD SVG 1.1//EN" "http://www.w3.org/Graphics/SVG/1.1/DTD/svg11.dtd">
<svg version="1.1" id="图层_1" xmlns="http://www.w3.org/2000/svg" xmlns:xlink="http://www.w3.org/1999/xlink" x="0px" y="0px"
	 width="30px" height="30px" viewBox="0 0 30 30" enable-background="new 0 0 30 30" xml:space="preserve">
<title>acc_contracts</title>
<desc>Created with Sketch.</desc>
<g id="Page-1_1_">
	<g id="acc_contracts">
		<g id="Page-1" transform="translate(3.000000, 6.000000)">
			<polygon id="Fill-1" fill="#999999" points="0,18.96 23.971,18.96 23.971,17.586 0,17.586 			"/>
			<path id="Fill-2" fill="#999999" d="M6.208,1.859c-0.216,0-0.456,0.074-0.647,0.221C5.25,2.301,4.962,2.669,4.674,3.209
				c-1.007,1.938-0.983,4.44,0.048,6.379C4.794,9.734,4.89,9.883,5.01,10.029c0.216-0.344,0.384-0.663,0.527-0.908
				C6.4,7.551,6.952,5.81,7.095,4.043c0.048-0.441,0.072-0.957-0.072-1.398C6.928,2.301,6.712,2.031,6.472,1.908
				C6.4,1.884,6.304,1.859,6.208,1.859L6.208,1.859z M2.565,13.979c-0.599,0-1.151-0.221-1.582-0.638
				c-0.36-0.344-0.576-0.811-0.695-1.447L0.12,10.961l1.798-0.318l0.168,0.933c0.048,0.245,0.12,0.368,0.144,0.393
				c0.096,0.073,0.215,0.122,0.359,0.122c0.432-0.024,0.839-0.27,1.223-0.588c-0.288-0.319-0.527-0.663-0.719-1.031
				C1.75,7.968,1.726,4.853,3.044,2.326c0.431-0.81,0.911-1.398,1.486-1.791C5.346-0.03,6.353-0.152,7.167,0.191
				C7.911,0.51,8.51,1.197,8.773,2.104c0.216,0.736,0.192,1.497,0.144,2.11C8.75,6.227,8.126,8.263,7.119,10.054
				c-0.167,0.319-0.407,0.712-0.647,1.129c0.503,0.196,1.031,0.221,1.534-0.024c0.432-0.197,0.743-0.564,1.15-1.104
				c0.432-0.54,0.671-1.03,0.791-1.57c0.096-0.516,0.576-0.834,1.079-0.736c0.359,0.074,0.647,0.368,0.719,0.736
				c0.144,0.368,0.911,1.84,1.103,2.11l0.071,0.123c0.432,0.613,0.672,0.907,0.936,0.834c0.432-0.099,0.814-0.59,1.198-1.153
				c0.407-0.589,0.72-1.276,0.911-1.963c0.096-0.368,0.407-0.662,0.791-0.687c0.383-0.049,0.743,0.172,0.91,0.515l0.504,1.031
				c0.455,0.932,0.863,1.667,1.463,2.037c0.383,0.245,0.887,0.318,1.318,0.195c0.287-0.073,0.383-0.221,0.742-0.834l0.456-0.809
				l1.582,0.956l-0.456,0.81c-0.383,0.662-0.814,1.424-1.846,1.693c-0.91,0.245-1.893,0.098-2.709-0.393
				c-0.838-0.491-1.365-1.301-1.773-2.037c-0.119,0.221-0.239,0.418-0.383,0.613c-0.456,0.639-1.15,1.619-2.302,1.89
				c-1.462,0.344-2.301-0.858-2.805-1.546l-0.12-0.196c0,0-0.24-0.368-0.503-0.834c-0.096,0.122-0.192,0.245-0.288,0.393
				c-0.432,0.54-0.959,1.202-1.798,1.619c-1.151,0.54-2.397,0.393-3.476-0.171c-0.695,0.711-1.534,1.25-2.589,1.3H2.565z"/>
		</g>
	</g>
</g>
</svg>
