<?xml version="1.0" encoding="utf-8"?>
<!-- Generator: Adobe Illustrator 15.0.0, SVG Export Plug-In . SVG Version: 6.00 Build 0)  -->
<!DOCTYPE svg PUBLIC "-//W3C//DTD SVG 1.1//EN" "http://www.w3.org/Graphics/SVG/1.1/DTD/svg11.dtd">
<svg version="1.1" id="图层_1" xmlns="http://www.w3.org/2000/svg" xmlns:xlink="http://www.w3.org/1999/xlink" x="0px" y="0px"
	 width="30px" height="30px" viewBox="0 0 30 30" enable-background="new 0 0 30 30" xml:space="preserve">
<g>
	<g>
		<path fill="#CCCCCC" d="M15,19.472c2.615-0.035,5.244,0.114,7.835,0.567c1.294,0.229,2.595,0.479,3.855,0.938
			c0.629,0.234,1.255,0.5,1.84,0.901c0.558,0.384,1.212,0.965,1.269,1.905c0.001,0.943-0.629,1.599-1.173,2.033
			c-0.571,0.457-1.19,0.778-1.814,1.067c-1.255,0.557-2.549,0.959-3.861,1.237c-2.626,0.543-5.287,0.781-7.949,0.823
			c-2.662-0.048-5.323-0.281-7.949-0.825c-1.311-0.286-2.604-0.682-3.859-1.24c-0.624-0.288-1.243-0.609-1.814-1.065
			c-0.543-0.435-1.173-1.088-1.172-2.029c0.056-0.938,0.709-1.52,1.266-1.903c0.584-0.401,1.21-0.667,1.839-0.9
			c1.261-0.461,2.562-0.709,3.855-0.941C9.756,19.586,12.384,19.437,15,19.472z M15,19.571c-2.611,0.011-5.227,0.206-7.79,0.7
			c-1.278,0.254-2.549,0.575-3.755,1.065c-0.598,0.25-1.189,0.533-1.706,0.919c-0.509,0.371-0.988,0.896-0.996,1.529
			c0.011,0.633,0.491,1.154,1,1.523c0.517,0.384,1.109,0.665,1.708,0.913c1.206,0.485,2.477,0.803,3.754,1.052
			c2.563,0.485,5.177,0.672,7.785,0.674c2.607-0.003,5.223-0.188,7.785-0.675c1.278-0.249,2.549-0.565,3.755-1.052
			c0.598-0.248,1.189-0.528,1.707-0.912c0.509-0.369,0.988-0.893,0.999-1.524c-0.009-0.633-0.487-1.157-0.997-1.528
			c-0.517-0.386-1.107-0.669-1.706-0.919c-1.205-0.491-2.476-0.813-3.754-1.065C20.227,19.776,17.611,19.582,15,19.571z"/>
	</g>
	<polygon fill="#999999" points="8.297,24.118 4.249,22.972 4.249,9.496 8.297,8.71 	"/>
	<polygon fill="#CCCCCC" points="12.012,22.807 8.507,24.118 8.507,8.71 12.096,9.806 	"/>
	<title>acc_member</title>
	<desc>Created with Sketch.</desc>
	<polygon fill="#999999" points="15,26.566 10.589,24.784 10.589,5.417 15,3.302 	"/>
	<polygon fill="#999999" points="21.193,24.118 17.146,22.972 17.146,9.496 21.193,8.71 	"/>
	<polygon fill="#CCCCCC" points="19.743,25.418 15.331,26.566 15.331,3.302 19.743,5.447 	"/>
	<polygon fill="#CCCCCC" points="24.911,22.807 21.405,24.118 21.405,8.71 24.993,9.806 	"/>
	
		<line fill="none" stroke="#999999" stroke-miterlimit="10" stroke-dasharray="1,1" x1="16.541" y1="5.206" x2="16.541" y2="25.236"/>
	<line fill="none" stroke="#999999" stroke-miterlimit="10" stroke-dasharray="1,1" x1="18.4" y1="6.021" x2="18.4" y2="23.092"/>
</g>
</svg>
