<?xml version="1.0" encoding="utf-8"?>
<!-- Generator: Adobe Illustrator 15.0.0, SVG Export Plug-In . SVG Version: 6.00 Build 0)  -->
<!DOCTYPE svg PUBLIC "-//W3C//DTD SVG 1.1//EN" "http://www.w3.org/Graphics/SVG/1.1/DTD/svg11.dtd">
<svg version="1.1" id="图层_1" xmlns="http://www.w3.org/2000/svg" xmlns:xlink="http://www.w3.org/1999/xlink" x="0px" y="0px"
	 width="30px" height="30px" viewBox="0 0 30 30" enable-background="new 0 0 30 30" xml:space="preserve">
<path fill="#CCCCCC" d="M10.642,26.457c0.008,0,0.016,0.002,0.024,0.002c0.004,0,0.009,0,0.013,0
	C10.667,26.459,10.655,26.457,10.642,26.457z"/>
<path fill="#999999" d="M10.727,19.854c3.603,0,6.701,0.779,8.138,1.902c0.545-1.266-1.115-2.715-1.115-4.255
	c0-4.948-1.93-8.958-7.083-8.958c-5.155,0-6.417,4.469-6.417,9.417c0,1.56-2.102,2.629-1.728,3.851
	C3.927,20.656,7.069,19.854,10.727,19.854z"/>
<ellipse fill="none" stroke="#999999" stroke-miterlimit="10" cx="10.75" cy="22.793" rx="8.75" ry="3.082"/>
<path fill="#999999" d="M12.696,21.205l-4.699,1.537c0.209,0.928,1.299,1.637,2.623,1.637c1.474,0,2.668-0.877,2.668-1.959
	C13.288,21.959,13.061,21.539,12.696,21.205z"/>
<ellipse fill="none" stroke="#999999" stroke-miterlimit="10" cx="10.915" cy="8.25" rx="2.918" ry="2.042"/>
<path fill="#FFFFFF" d="M28.75,13.116c0,1.458-1.184,2.641-2.641,2.641h-8.637c-1.457,0-2.641-1.183-2.641-2.641V5.012
	c0-1.458,1.184-2.641,2.641-2.641h8.637c1.457,0,2.641,1.183,2.641,2.641V13.116z"/>
<path fill="#999999" d="M29.5,12.596c0,1.457-1.184,2.641-2.641,2.641h-8.637c-1.457,0-2.641-1.184-2.641-2.641V4.49
	c0-1.457,1.184-2.64,2.641-2.64h8.637c1.457,0,2.641,1.184,2.641,2.64V12.596z"/>
<text transform="matrix(1 0 0 1 20.3252 13.457)" fill="#FFFFFF" font-family="'BerlinSansFB-Reg'" font-size="14.2681">!</text>
</svg>
