<?xml version="1.0" encoding="utf-8"?>
<!-- Generator: Adobe Illustrator 15.0.0, SVG Export Plug-In . SVG Version: 6.00 Build 0)  -->
<!DOCTYPE svg PUBLIC "-//W3C//DTD SVG 1.1//EN" "http://www.w3.org/Graphics/SVG/1.1/DTD/svg11.dtd">
<svg version="1.1" id="图层_1" xmlns="http://www.w3.org/2000/svg" xmlns:xlink="http://www.w3.org/1999/xlink" x="0px" y="0px"
	 width="30px" height="30px" viewBox="0 0 30 30" enable-background="new 0 0 30 30" xml:space="preserve">
<title>acc_default_module</title>
<desc>Created with Sketch.</desc>
<title>acc_default_module</title>
<desc>Created with Sketch.</desc>
<title>acc_default_module</title>
<desc>Created with Sketch.</desc>
<rect x="1.937" y="4.75" fill="#FFFFFF" stroke="#999999" stroke-miterlimit="10" width="26.063" height="22.25"/>
<g>
	<path fill="#999999" d="M15.059,18.48c-0.518,0.705-1.025,1.301-1.525,1.787c-0.986,0.949-1.965,1.422-2.936,1.422
		c-0.846,0-1.502-0.311-1.973-0.93c-0.297-0.4-0.445-0.875-0.445-1.424c0-1.35,0.548-2.838,1.644-4.467
		c1.222-1.812,2.692-3.203,4.413-4.176c1.127-0.632,2.215-0.949,3.266-0.949c0.655,0,1.203,0.159,1.644,0.475
		c0.376,0.279,0.563,0.596,0.563,0.948c0,0.268-0.134,0.638-0.398,1.112c0.234,0.255,0.35,0.48,0.35,0.675
		c0,0.254-0.218,0.674-0.656,1.258c-0.453,0.595-0.908,1.386-1.359,2.37c-0.486,1.045-0.729,1.885-0.729,2.518
		c0,0.51,0.078,1.217,0.588,1.258c0.963,0.08,1.762-1.086,2.326-1.049c0.445,0.029,1.48,0.064,1.902,1.26
		c0.127,0.355-0.227,1.162-0.932,0.836c-0.68-0.313-0.748-0.457-1.266-0.215c-0.764,0.359-2.428,1.469-3.816,0.279
		c-0.524-0.447-0.752-1.068-0.752-1.787C14.967,19.441,14.996,19.039,15.059,18.48z M19.309,12.28
		c-1.264,0.012-1.706-0.264-1.926-0.392s-0.453-0.191-0.705-0.191c-1.188,0-2.48,0.809-3.873,2.425
		c-1.534,1.787-2.301,3.3-2.301,4.541c0,0.305,0.073,0.535,0.224,0.695c0.147,0.156,0.372,0.234,0.669,0.234
		c0.751,0,1.628-0.619,2.629-1.859c0.564-0.682,1.261-1.684,2.089-3.009c0.549-0.862,0.94-1.441,1.198-1.714
		C17.967,12.318,18.92,12.283,19.309,12.28z"/>
</g>
<path fill="none" stroke="#999999" stroke-miterlimit="10" d="M27.125,2.083"/>
<path fill="none" stroke="#999999" stroke-miterlimit="10" d="M9.25,2.083"/>
<polygon fill="#CCCCCC" points="23.423,1.781 6.954,1.781 1.531,4.375 28.5,4.375 "/>
</svg>
