<?xml version="1.0" encoding="utf-8"?>
<!-- Generator: Adobe Illustrator 15.0.0, SVG Export Plug-In . SVG Version: 6.00 Build 0)  -->
<!DOCTYPE svg PUBLIC "-//W3C//DTD SVG 1.1//EN" "http://www.w3.org/Graphics/SVG/1.1/DTD/svg11.dtd">
<svg version="1.1" id="图层_1" xmlns="http://www.w3.org/2000/svg" xmlns:xlink="http://www.w3.org/1999/xlink" x="0px" y="0px"
	 width="30px" height="30px" viewBox="0 0 30 30" enable-background="new 0 0 30 30" xml:space="preserve">
<title>acc_default_module</title>
<desc>Created with Sketch.</desc>
<title>acc_default_module</title>
<desc>Created with Sketch.</desc>
<title>acc_default_module</title>
<desc>Created with Sketch.</desc>
<ellipse fill="#FFFFFF" stroke="#CCCCCC" stroke-miterlimit="10" cx="4.195" cy="17.875" rx="3.094" ry="1.813"/>
<ellipse fill="#FFFFFF" stroke="#CCCCCC" stroke-miterlimit="10" cx="14.5" cy="19.355" rx="3.469" ry="1.906"/>
<path fill="#999999" stroke="#FFFFFF" stroke-miterlimit="10" d="M14.081,0.438c-3.365,0-6.094,2.729-6.094,6.094
	s5.076,13.156,6.094,13.156c0.594,0,6.094-9.791,6.094-13.156S17.446,0.438,14.081,0.438z M13.956,8.563
	c-0.915,0-1.656-0.742-1.656-1.656s0.741-1.656,1.656-1.656s1.656,0.742,1.656,1.656S14.871,8.563,13.956,8.563z"/>
<line fill="none" stroke="#CCCCCC" stroke-miterlimit="10" x1="16.587" y1="20.698" x2="22.471" y2="24.377"/>
<line fill="none" stroke="#CCCCCC" stroke-miterlimit="10" x1="7.664" y1="18.041" x2="11.031" y2="18.76"/>
<ellipse fill="#FFFFFF" stroke="#CCCCCC" stroke-miterlimit="10" cx="23.999" cy="18.594" rx="3.469" ry="1.906"/>
<line fill="none" stroke="#CCCCCC" stroke-miterlimit="10" x1="17.486" y1="18.926" x2="20.854" y2="18.594"/>
<ellipse fill="#FFFFFF" stroke="#CCCCCC" stroke-miterlimit="10" cx="24.322" cy="24.219" rx="3.469" ry="1.906"/>
</svg>
