<?xml version="1.0" encoding="utf-8"?>
<!-- Generator: Adobe Illustrator 15.0.0, SVG Export Plug-In . SVG Version: 6.00 Build 0)  -->
<!DOCTYPE svg PUBLIC "-//W3C//DTD SVG 1.1//EN" "http://www.w3.org/Graphics/SVG/1.1/DTD/svg11.dtd">
<svg version="1.1" id="图层_1" xmlns="http://www.w3.org/2000/svg" xmlns:xlink="http://www.w3.org/1999/xlink" x="0px" y="0px"
	 width="30px" height="30px" viewBox="0 0 30 30" enable-background="new 0 0 30 30" xml:space="preserve">
<title>acc_default_module</title>
<desc>Created with Sketch.</desc>
<title>acc_default_module</title>
<desc>Created with Sketch.</desc>
<title>acc_default_module</title>
<desc>Created with Sketch.</desc>
<path fill="#999999" d="M28.611,8.891c0,0.336-0.41,0.609-0.915,0.609H2.166C1.66,9.5,1.25,9.227,1.25,8.891V1.943
	c0-0.336,0.41-0.609,0.916-0.609h25.53c0.505,0,0.915,0.273,0.915,0.609V8.891z"/>
<path fill="#999999" d="M28.611,18.474c0,0.336-0.41,0.609-0.915,0.609H2.166c-0.506,0-0.916-0.273-0.916-0.609v-6.947
	c0-0.336,0.41-0.609,0.916-0.609h25.53c0.505,0,0.915,0.273,0.915,0.609V18.474z"/>
<path fill="#999999" d="M28.611,27.641c0,0.336-0.41,0.609-0.915,0.609H2.166c-0.506,0-0.916-0.273-0.916-0.609v-6.947
	c0-0.336,0.41-0.609,0.916-0.609h25.53c0.505,0,0.915,0.273,0.915,0.609V27.641z"/>
<rect x="3.334" y="2.5" fill="#FFFFFF" width="1.583" height="5.667"/>
<rect x="5.75" y="2.5" fill="#FFFFFF" width="1.583" height="5.667"/>
<rect x="8.042" y="2.5" fill="#FFFFFF" width="1.583" height="5.667"/>
<rect x="3.397" y="11.959" fill="#FFFFFF" width="1.583" height="5.666"/>
<rect x="5.813" y="11.959" fill="#FFFFFF" width="1.583" height="5.666"/>
<rect x="8.105" y="11.959" fill="#FFFFFF" width="1.583" height="5.666"/>
<rect x="3.46" y="21.334" fill="#FFFFFF" width="1.583" height="5.666"/>
<rect x="5.876" y="21.334" fill="#FFFFFF" width="1.583" height="5.666"/>
<rect x="8.168" y="21.334" fill="#FFFFFF" width="1.583" height="5.666"/>
<circle fill="#FFFFFF" cx="19.412" cy="5.584" r="1.036"/>
<circle fill="#FFFFFF" cx="22.375" cy="5.584" r="1.036"/>
<circle fill="#FFFFFF" cx="25.34" cy="5.584" r="1.035"/>
<circle fill="#FFFFFF" cx="19.579" cy="15" r="1.036"/>
<circle fill="#FFFFFF" cx="22.542" cy="15" r="1.036"/>
<circle fill="#FFFFFF" cx="25.507" cy="15" r="1.035"/>
<circle fill="#FFFFFF" cx="19.579" cy="24.168" r="1.036"/>
<circle fill="#FFFFFF" cx="22.542" cy="24.168" r="1.036"/>
<circle fill="#FFFFFF" cx="25.507" cy="24.168" r="1.035"/>
</svg>
