<?xml version="1.0" encoding="utf-8"?>
<!-- Generator: Adobe Illustrator 15.0.0, SVG Export Plug-In . SVG Version: 6.00 Build 0)  -->
<!DOCTYPE svg PUBLIC "-//W3C//DTD SVG 1.1//EN" "http://www.w3.org/Graphics/SVG/1.1/DTD/svg11.dtd">
<svg version="1.1" id="图层_1" xmlns="http://www.w3.org/2000/svg" xmlns:xlink="http://www.w3.org/1999/xlink" x="0px" y="0px"
	 width="30px" height="30px" viewBox="0 0 30 30" enable-background="new 0 0 30 30" xml:space="preserve">
<title>acc_product_categories</title>
<desc>Created with Sketch.</desc>
<g id="Page-1">
	<g id="acc_product_categories">
		<path id="Page-1-Copy-2" fill="#999999" d="M21.057,28.014c-1.809,1.809-4.746,1.809-6.556,0L1.623,15.46
			C0.696,14.609,0,13.342,0,11.981V4.638C0,2.071,2.072,0,4.638,0h7.343c1.361,0,2.628,0.695,3.479,1.623l12.477,12.956
			c1.809,1.809,1.809,4.746,0,6.555L21.057,28.014L21.057,28.014z M19.959,26.916l6.879-6.88c1.207-1.206,1.207-3.169,0-4.376
			L14.084,2.442c-0.51-0.587-1.252-0.896-2.103-0.896L4.591,1.5c-1.7,0-3.045,1.438-3.045,3.139v7.343
			c0,0.85,0.309,1.592,0.897,2.103l13.141,12.832C16.789,28.122,18.753,28.122,19.959,26.916L19.959,26.916z M6.957,3.092
			c2.134,0,3.865,1.731,3.865,3.865c0,2.133-1.731,3.865-3.865,3.865c-2.133,0-3.865-1.731-3.865-3.865
			C3.092,4.823,4.824,3.092,6.957,3.092L6.957,3.092z M6.957,4.638c-1.283,0-2.318,1.036-2.318,2.319s1.036,2.319,2.318,2.319
			c1.284,0,2.319-1.036,2.319-2.319S8.24,4.638,6.957,4.638L6.957,4.638z"/>
	</g>
</g>
</svg>
