<?xml version="1.0" standalone="no"?>
<!DOCTYPE svg PUBLIC "-//W3C//DTD SVG 1.1//EN" "http://www.w3.org/Graphics/SVG/1.1/DTD/svg11.dtd" >
<svg xmlns="http://www.w3.org/2000/svg">
<metadata>Generated by IcoMoon</metadata>
<defs>
<font id="icomoon" horiz-adv-x="1024">
<font-face units-per-em="1024" ascent="819.2" descent="-204.8" />
<missing-glyph horiz-adv-x="1024" />
<glyph unicode="&#x20;" d="" />
<glyph unicode="&#xe021;" glyph-name="games" d="M704 426.667h234v-256h-234l-128 128zM384 106.667l128 128 128-128v-234h-256v234zM320 426.667l128-128-128-128h-234v256h234zM640 490.667l-128-128-128 128v234h256v-234z" />
<glyph unicode="&#xe153;" glyph-name="flag" d="M614 554.667h240v-426h-300l-16 84h-240v-298h-84v726h384z" />
<glyph unicode="&#xe155;" glyph-name="gesture" d="M592 18.667c30 0 80 36 92 150-92-24-124-92-124-118 0-20 18-32 32-32zM196 516.667l-74 72c10 12 20 24 36 40 10 10 60 54 116 54 38 0 108-30 108-122 0-58-22-92-56-140-20-28-64-104-78-150-16-46-6-82 14-82 18 0 38 24 48 36 10 10 74 84 98 116 32 40 114 120 210 120 126 0 166-108 172-178h106v-106h-104c-18-204-132-262-202-262-76 0-136 60-136 132s68 202 230 230c-4 34-6 76-76 76-54 0-122-82-174-146-48-58-84-104-130-118-99.552-31.437-170 56.487-170 146 0 104 112 252 122 270 12 20 34 56 12 64-14 6-42-22-72-52z" />
<glyph unicode="&#xe1a3;" glyph-name="battery_charging_full" d="M470-43.333l170 320h-86v236l-170-320h86v-236zM668 640.667c32 0 58-26 58-58v-654c0-32-26-56-58-56h-312c-32 0-58 24-58 56v654c0 32 26 58 58 58h70v84h172v-84h70z" />
<glyph unicode="&#xe1bb;" glyph-name="nfc" d="M768 554.667v-512h-512v512h170v-86h-84v-340h340v340h-128v-96c26-14 44-42 44-74 0-46-40-86-86-86s-86 40-86 86c0 32 18 60 44 74v96c0 46 38 86 84 86h214zM854-43.333v684h-684v-684h684zM854 724.667c46 0 84-38 84-84v-684c0-46-38-84-84-84h-684c-46 0-84 38-84 84v684c0 46 38 84 84 84h684z" />
<glyph unicode="&#xe1bd;" glyph-name="widgets" d="M710 738.667l242-242-242-240h186v-342h-342v342h156l-240 240v-156h-342v342h342v-186zM128-85.333v342h342v-342h-342z" />
<glyph unicode="&#xe1c2;" glyph-name="sd_storage" d="M768 468.667v172h-86v-172h86zM640 468.667v172h-86v-172h86zM512 468.667v172h-86v-172h86zM768 724.667c46 0 86-38 86-84v-684c0-46-40-84-86-84h-512c-46 0-86 38-86 84l2 512 254 256h342z" />
<glyph unicode="&#xe228;" glyph-name="border_all" d="M810 340.667v256h-256v-256h256zM810 0.667v256h-256v-256h256zM470 340.667v256h-256v-256h256zM470 0.667v256h-256v-256h256zM128 682.667h768v-768h-768v768z" />
<glyph unicode="&#xe22f;" glyph-name="border_outer" d="M384 340.667v-84h-86v84h86zM554 170.667v-86h-84v86h84zM810 0.667v596h-596v-596h596zM128 682.667h768v-768h-768v768zM726 340.667v-84h-86v84h86zM554 340.667v-84h-84v84h84zM554 512.667v-86h-84v86h84z" />
<glyph unicode="&#xe25e;" glyph-name="format_shapes" d="M456 266.667h112l-56 164zM586 212.667h-150l-30-84h-70l146 384h60l144-384h-68zM810 596.667h86v86h-86v-86zM896-85.333v86h-86v-86h86zM726 0.667v84h84v428h-84v84h-428v-84h-84v-428h84v-84h428zM214-85.333v86h-86v-86h86zM128 682.667v-86h86v86h-86zM982 512.667h-86v-428h86v-256h-256v86h-428v-86h-256v256h86v428h-86v256h256v-86h428v86h256v-256z" />
<glyph unicode="&#xe30c;" glyph-name="desktop_windows" d="M896 128.667v512h-768v-512h768zM896 724.667c46 0 86-38 86-84v-512c0-46-40-86-86-86h-298v-86h84v-84h-340v84h84v86h-298c-46 0-86 40-86 86v512c0 46 40 84 86 84h768z" />
<glyph unicode="&#xe311;" glyph-name="headset_mic" d="M512 768.667c212 0 384-172 384-384v-428c0-70-58-128-128-128h-256v86h298v42h-170v342h170v86c0 166-132 298-298 298s-298-132-298-298v-86h170v-342h-128c-70 0-128 58-128 128v300c0 212 172 384 384 384z" />
<glyph unicode="&#xe322;" glyph-name="memory" d="M726 84.667v428h-428v-428h428zM896 340.667h-86v-84h86v-86h-86v-86c0-46-38-84-84-84h-86v-86h-86v86h-84v-86h-86v86h-86c-46 0-84 38-84 84v86h-86v86h86v84h-86v86h86v86c0 46 38 84 84 84h86v86h86v-86h84v86h86v-86h86c46 0 84-38 84-84v-86h86v-86zM554 256.667v84h-84v-84h84zM640 426.667v-256h-256v256h256z" />
<glyph unicode="&#xe329;" glyph-name="scanner" d="M810 84.667v86h-426v-86h426zM298 84.667v86h-84v-86h84zM844 354.667c30-8 52-44 52-78v-234c0-46-40-86-86-86h-596c-46 0-86 40-86 86v170c0 46 40 86 86 86h536l-600 218 30 80z" />
<glyph unicode="&#xe332;" glyph-name="toys" d="M512 298.667c0-128-106-234-234-234s-236 106-236 234h470zM512 298.667c-128 0-234 106-234 234s106 236 234 236v-470zM512 298.667c128 0 234-106 234-234s-106-236-234-236v470zM512 298.667c0 128 106 234 234 234s236-106 236-234h-470z" />
<glyph unicode="&#xe3b4;" glyph-name="center_focus_strong" d="M810 0.667v170h86v-170c0-46-40-86-86-86h-170v86h170zM810 682.667c46 0 86-40 86-86v-170h-86v170h-170v86h170zM214 596.667v-170h-86v170c0 46 40 86 86 86h170v-86h-170zM214 170.667v-170h170v-86h-170c-46 0-86 40-86 86v170h86zM512 468.667c94 0 170-76 170-170s-76-170-170-170-170 76-170 170 76 170 170 170z" />
<glyph unicode="&#xe3b5;" glyph-name="center_focus_weak" d="M512 212.667c46 0 86 40 86 86s-40 86-86 86-86-40-86-86 40-86 86-86zM512 468.667c94 0 170-76 170-170s-76-170-170-170-170 76-170 170 76 170 170 170zM810 0.667v170h86v-170c0-46-40-86-86-86h-170v86h170zM810 682.667c46 0 86-40 86-86v-170h-86v170h-170v86h170zM214 596.667v-170h-86v170c0 46 40 86 86 86h170v-86h-170zM214 170.667v-170h170v-86h-170c-46 0-86 40-86 86v170h86z" />
<glyph unicode="&#xe3b8;" glyph-name="colorize" d="M296 0.667l344 344-82 82-344-344zM884 570.667c16-16 18-42 0-60l-134-134 82-82-60-60-60 60-382-380h-202v202l380 382-60 60 60 60 82-82 134 134c16 16 44 16 60 0z" />
<glyph unicode="&#xe3c2;" glyph-name="crop_free" d="M810 682.667c46 0 86-40 86-86v-170h-86v170h-170v86h170zM810 0.667v170h86v-170c0-46-40-86-86-86h-170v86h170zM214 170.667v-170h170v-86h-170c-46 0-86 40-86 86v170h86zM128 596.667c0 46 40 86 86 86h170v-86h-170v-170h-86v170z" />
<glyph unicode="&#xe3d0;" glyph-name="filter_1" d="M896 84.667v598h-598v-598h598zM896 768.667c46 0 86-40 86-86v-598c0-46-40-84-86-84h-598c-46 0-84 38-84 84v598c0 46 38 86 84 86h598zM598 170.667v342h-86v84h170v-426h-84zM128 596.667v-682h682v-86h-682c-46 0-86 40-86 86v682h86z" />
<glyph unicode="&#xe3d1;" glyph-name="filter_2" d="M726 256.667v-86h-256v170c0 48 38 86 84 86h86v86h-170v84h170c46 0 86-36 86-84v-86c0-48-40-86-86-86h-86v-84h172zM896 84.667v598h-598v-598h598zM896 768.667c46 0 86-40 86-86v-598c0-46-40-84-86-84h-598c-46 0-84 38-84 84v598c0 46 38 86 84 86h598zM128 596.667v-682h682v-86h-682c-46 0-86 40-86 86v682h86z" />
<glyph unicode="&#xe3d2;" glyph-name="filter_3" d="M726 256.667c0-48-40-86-86-86h-170v86h170v84h-86v86h86v86h-170v84h170c46 0 86-36 86-84v-64c0-36-28-64-64-64 36 0 64-28 64-64v-64zM128 596.667v-682h682v-86h-682c-46 0-86 40-86 86v682h86zM896 84.667v598h-598v-598h598zM896 768.667c46 0 86-40 86-86v-598c0-46-40-84-86-84h-598c-46 0-84 38-84 84v598c0 46 38 86 84 86h598z" />
<glyph unicode="&#xe3d3;" glyph-name="filter" d="M896 84.667v598h-598v-598h598zM896 768.667c46 0 86-40 86-86v-598c0-46-40-84-86-84h-598c-46 0-84 38-84 84v598c0 46 38 86 84 86h598zM128 596.667v-682h682v-86h-682c-46 0-86 40-86 86v682h86zM680 370.667l152-200h-470l118 150 84-100z" />
<glyph unicode="&#xe3d4;" glyph-name="filter_4" d="M896 84.667v598h-598v-598h598zM896 768.667c46 0 86-40 86-86v-598c0-46-40-84-86-84h-598c-46 0-84 38-84 84v598c0 46 38 86 84 86h598zM640 170.667v170h-170v256h84v-170h86v170h86v-426h-86zM128 596.667v-682h682v-86h-682c-46 0-86 40-86 86v682h86z" />
<glyph unicode="&#xe3d5;" glyph-name="filter_5" d="M726 256.667c0-48-40-86-86-86h-170v86h170v84h-170v256h256v-84h-172v-86h86c46 0 86-38 86-86v-84zM128 596.667v-682h682v-86h-682c-46 0-86 40-86 86v682h86zM896 84.667v598h-598v-598h598zM896 768.667c46 0 86-40 86-86v-598c0-46-40-84-86-84h-598c-46 0-84 38-84 84v598c0 46 38 86 84 86h598z" />
<glyph unicode="&#xe3d6;" glyph-name="filter_6" d="M554 340.667v-84h86v84h-86zM554 170.667c-46 0-84 38-84 86v256c0 48 38 84 84 84h172v-84h-172v-86h86c46 0 86-38 86-86v-84c0-48-40-86-86-86h-86zM896 84.667v598h-598v-598h598zM896 768.667c46 0 86-40 86-86v-598c0-46-40-84-86-84h-598c-46 0-84 38-84 84v598c0 46 38 86 84 86h598zM128 596.667v-682h682v-86h-682c-46 0-86 40-86 86v682h86z" />
<glyph unicode="&#xe3d7;" glyph-name="filter_7" d="M554 170.667h-84l170 342h-170v84h256v-84zM896 84.667v598h-598v-598h598zM896 768.667c46 0 86-40 86-86v-598c0-46-40-84-86-84h-598c-46 0-84 38-84 84v598c0 46 38 86 84 86h598zM128 596.667v-682h682v-86h-682c-46 0-86 40-86 86v682h86z" />
<glyph unicode="&#xe3d8;" glyph-name="filter_8" d="M554 340.667v-84h86v84h-86zM554 512.667v-86h86v86h-86zM554 170.667c-46 0-84 38-84 86v64c0 36 28 64 64 64-36 0-64 28-64 64v64c0 48 38 84 84 84h86c46 0 86-36 86-84v-64c0-36-28-64-64-64 36 0 64-28 64-64v-64c0-48-40-86-86-86h-86zM896 84.667v598h-598v-598h598zM896 768.667c46 0 86-40 86-86v-598c0-46-40-84-86-84h-598c-46 0-84 38-84 84v598c0 46 38 86 84 86h598zM128 596.667v-682h682v-86h-682c-46 0-86 40-86 86v682h86z" />
<glyph unicode="&#xe3d9;" glyph-name="filter_9" d="M640 426.667v86h-86v-86h86zM640 596.667c46 0 86-36 86-84v-256c0-48-40-86-86-86h-170v86h170v84h-86c-46 0-84 38-84 86v86c0 48 38 84 84 84h86zM896 84.667v598h-598v-598h598zM896 768.667c46 0 86-40 86-86v-598c0-46-40-84-86-84h-598c-46 0-84 38-84 84v598c0 46 38 86 84 86h598zM128 596.667v-682h682v-86h-682c-46 0-86 40-86 86v682h86z" />
<glyph unicode="&#xe3da;" glyph-name="filter_9_plus" d="M896 426.667v256h-598v-598h598v256h-86v-84h-84v84h-86v86h86v86h84v-86h86zM896 768.667c46 0 86-40 86-86v-598c0-46-40-84-86-84h-598c-46 0-84 38-84 84v598c0 46 38 86 84 86h598zM470 426.667h42v42h-42v-42zM598 298.667c0-48-40-86-86-86h-128v86h128v42h-42c-46 0-86 38-86 86v42c0 48 40 86 86 86h42c46 0 86-38 86-86v-170zM128 596.667v-682h682v-86h-682c-46 0-86 40-86 86v682h86z" />
<glyph unicode="&#xe3dc;" glyph-name="filter_center_focus" d="M512 426.667c70 0 128-58 128-128s-58-128-128-128-128 58-128 128 58 128 128 128zM810 0.667v170h86v-170c0-46-40-86-86-86h-170v86h170zM810 682.667c46 0 86-40 86-86v-170h-86v170h-170v86h170zM214 596.667v-170h-86v170c0 46 40 86 86 86h170v-86h-170zM214 170.667v-170h170v-86h-170c-46 0-86 40-86 86v170h86z" />
<glyph unicode="&#xe3dd;" glyph-name="filter_drama" d="M810 42.667c70 0 128 58 128 128s-58 128-128 128h-64v22c0 130-104 234-234 234-76 0-144-36-188-94 108-30 188-130 188-248h-86c0 94-76 172-170 172s-170-78-170-172 76-170 170-170h554zM826 382.667c110-8 198-100 198-212 0-118-96-214-214-214h-554c-142 0-256 114-256 256 0 132 100 240 228 254 54 102 160 174 284 174 156 0 284-110 314-258z" />
<glyph unicode="&#xe3e2;" glyph-name="filter_tilt_shift" d="M242-31.333l60 60c48-36 106-60 168-68v-86c-86 8-164 42-228 94zM554-39.333c62 8 120 32 166 68l62-60c-64-52-142-86-228-94v86zM782 88.667c36 48 60 104 68 166h86c-8-86-42-162-94-226zM640 298.667c0-70-58-128-128-128s-128 58-128 128 58 128 128 128 128-58 128-128zM174 256.667c8-62 32-120 68-166l-60-62c-52 64-86 142-94 228h86zM242 508.667c-36-48-60-106-68-168h-86c8 86 42 164 94 228zM850 340.667c-8 62-32 120-68 168l60 60c52-64 86-142 94-228h-86zM782 628.667l-60-60c-48 36-106 60-168 68v86c86-8 164-42 228-94zM470 636.667c-62-8-120-32-168-68l-60 60c64 52 142 86 228 94v-86z" />
<glyph unicode="&#xe3e4;" glyph-name="flare" d="M470-171.333v256h84v-256h-84zM240 86.667l92 92 60-60-92-92zM632 118.667l60 60 92-92-60-60zM512 426.667c70 0 128-58 128-128s-58-128-128-128-128 58-128 128 58 128 128 128zM726 340.667h256v-84h-256v84zM784 510.667l-92-92-60 60 92 92zM554 768.667v-256h-84v256h84zM392 478.667l-60-60-92 92 60 60zM298 340.667v-84h-256v84h256z" />
<glyph unicode="&#xe3e7;" glyph-name="flash_on" d="M298 724.667h428l-172-340h172l-300-512v384h-128v468z" />
<glyph unicode="&#xe407;" glyph-name="nature_people" d="M192 340.667c-36 0-64 28-64 64s28 64 64 64 64-28 64-64-28-64-64-64zM946 418.667c0-154-116-278-264-296v-166h128v-84h-682v212h-42v172c0 24 18 42 42 42h128c24 0 42-18 42-42v-172h-42v-128h342v168c-142 24-250 146-250 294 0 166 134 300 300 300s298-134 298-300z" />
<glyph unicode="&#xe412;" glyph-name="photo_camera" d="M512 84.667c118 0 214 96 214 214s-96 214-214 214-214-96-214-214 96-214 214-214zM384 724.667h256l78-84h136c46 0 84-40 84-86v-512c0-46-38-86-84-86h-684c-46 0-84 40-84 86v512c0 46 38 86 84 86h136zM376 298.667c0 76 60 136 136 136s136-60 136-136-60-136-136-136-136 60-136 136z" />
<glyph unicode="&#xe421;" glyph-name="texture" d="M396-85.333l500 500v-122l-378-378h-122zM896 0.667c0-45.948-40.071-86-86-86h-84l170 170v-84zM214 682.667h84l-170-170v84c0 46 40 86 86 86zM506 682.667h122l-500-500v122zM832 678.667c30-8 54-30 62-60l-702-700c-29.35 8.386-51.612 30.641-60 60z" />
<glyph unicode="&#xe42e;" glyph-name="wb_incandescent" d="M736 36.667l60 58 76-76-60-60zM854 362.667h128v-86h-128v86zM640 540.667c76-44 128-126 128-220 0-142-114-256-256-256s-256 114-256 256c0 94 52 176 128 220v206h256v-206zM170 362.667v-86h-128v86h128zM470-147.333v126h84v-126h-84zM152 18.667l76 78 60-60-76-78z" />
<glyph unicode="&#xe541;" glyph-name="local_cafe" d="M86-85.333v86h768v-86h-768zM854 468.667v128h-86v-128h86zM854 682.667c48 0 84-38 84-86v-128c0-48-36-84-84-84h-86v-128c0-94-76-172-170-172h-256c-94 0-172 78-172 172v426h684z" />
<glyph unicode="&#xe545;" glyph-name="local_florist" d="M512 576.667c-58 0-106-50-106-108s48-106 106-106 106 48 106 106-48 108-106 108zM238 372.667c0 42 26 78 62 96-36 18-62 54-62 96 0 58 50 108 108 108 22 0 42-8 60-20v8c0 58 48 108 106 108s106-50 106-108v-8c18 12 38 20 60 20 58 0 108-50 108-108 0-42-26-78-62-96 36-18 62-54 62-96 0-58-50-106-108-106-22 0-42 6-60 18v-8c0-58-48-106-106-106s-106 48-106 106v8c-18-12-38-18-60-18-58 0-108 48-108 106zM512-127.333c-212 0-384 172-384 384 212 0 384-172 384-384zM512-127.333c0 212 172 384 384 384 0-212-172-384-384-384z" />
<glyph unicode="&#xe546;" glyph-name="local_gas_station" d="M768 384.667c24 0 42 18 42 42s-18 42-42 42-42-18-42-42 18-42 42-42zM512 384.667v212h-256v-212h256zM844 502.667c20-20 30-46 30-76v-406c0-58-48-106-106-106s-106 48-106 106v214h-64v-320h-428v682c0 46 40 86 86 86h256c46 0 86-40 86-86v-298h42c46 0 86-40 86-86v-192c0-24 18-42 42-42s42 18 42 42v308c-14-6-26-8-42-8-58 0-106 48-106 106 0 46 28 84 68 100l-90 90 46 44z" />
<glyph unicode="&#xe549;" glyph-name="local_hotel" d="M810 512.667c94 0 172-78 172-172v-384h-86v128h-768v-128h-86v640h86v-384h342v300h340zM298 256.667c-70 0-128 58-128 128s58 128 128 128 128-58 128-128-58-128-128-128z" />
<glyph unicode="&#xe54a;" glyph-name="local_laundry_service" d="M512-43.333c142 0 256 114 256 256s-114 256-256 256-256-114-256-256 114-256 256-256zM298 640.667c-24 0-42-20-42-44s18-42 42-42 44 18 44 42-20 44-44 44zM426 640.667c-24 0-42-20-42-44s18-42 42-42 44 18 44 42-20 44-44 44zM768 724.667c48 0 86-36 86-84v-684c0-48-38-84-86-84h-512c-48 0-86 36-86 84v684c0 48 38 84 86 84h512zM392 92.667l240 242c66-66 66-176 0-242s-174-66-240 0z" />
<glyph unicode="&#xe55c;" glyph-name="my_location" d="M512 0.667c166 0 298 132 298 298s-132 298-298 298-298-132-298-298 132-298 298-298zM894 340.667h88v-84h-88c-20-178-162-320-340-340v-88h-84v88c-178 20-320 162-340 340h-88v84h88c20 178 162 320 340 340v88h84v-88c178-20 320-162 340-340zM512 468.667c94 0 170-76 170-170s-76-170-170-170-170 76-170 170 76 170 170 170z" />
<glyph unicode="&#xe561;" glyph-name="restaurant_menu" d="M634 318.667l-62-62 294-294-60-60-294 294-294-294-60 60 416 416c-30 66-8 158 60 226 82 82 198 96 260 34s48-180-34-262c-68-68-160-88-226-58zM346 240.667l-180 180c-66 66-66 174 0 240l300-298z" />
<glyph unicode="&#xe564;" glyph-name="terrain" d="M598 554.667l384-512h-940l256 342 192-256 68 50-120 162z" />
<glyph unicode="&#xe572;" glyph-name="transfer_within_a_station" d="M246 430.667l-118-602h90l74 342 92-86v-256h86v322l-88 88 26 128c56-68 138-110 232-110v84c-78 0-148 44-186 106l-40 68c-14 26-42 40-72 40-10 0-22-2-32-6l-224-92v-200h84v142l76 32zM406 576.667c-46 0-86 38-86 84s40 86 86 86 84-40 84-86-38-84-84-84zM832-31.333v74l106-106-106-108v76h-234v64h234zM704 148.667h234v-64h-234v-74l-106 106 106 108v-76z" />
<glyph unicode="&#xe5d0;" glyph-name="fullscreen" d="M598 596.667h212v-212h-84v128h-128v84zM726 84.667v128h84v-212h-212v84h128zM214 384.667v212h212v-84h-128v-128h-84zM298 212.667v-128h128v-84h-212v212h84z" />
<glyph unicode="&#xe7ee;" glyph-name="domain" d="M768 170.667v-86h-86v86h86zM768 340.667v-84h-86v84h86zM854 0.667v426h-342v-86h86v-84h-86v-86h86v-86h-86v-84h342zM426 512.667v84h-84v-84h84zM426 340.667v86h-84v-86h84zM426 170.667v86h-84v-86h84zM426 0.667v84h-84v-84h84zM256 512.667v84h-86v-84h86zM256 340.667v86h-86v-86h86zM256 170.667v86h-86v-86h86zM256 0.667v84h-86v-84h86zM512 512.667h426v-598h-852v768h426v-170z" />
<glyph unicode="&#xe7f7;" glyph-name="notifications_active" d="M512-127.333c-48 0-86 38-86 84h170c0-49.675-37.225-84-84-84zM768 340.667v-212l86-86v-42h-684v42l86 86v212c0 132 70 240 192 270v30c0 36 28 64 64 64s64-28 64-64v-30c122-30 192-140 192-270zM852 362.667c-6 114-64 212-150 274l60 60c102-78 170-198 176-334h-86zM324 636.667c-88-62-146-160-152-274h-86c6 136 74 256 176 334z" />
<glyph unicode="&#xe80b;" glyph-name="public" d="M764 68.667c56 60 90 142 90 230 0 142-88 266-214 316v-18c0-46-40-84-86-84h-84v-86c0-24-20-42-44-42h-84v-86h256c24 0 42-18 42-42v-128h42c38 0 70-26 82-60zM470-39.333v82c-46 0-86 40-86 86v42l-204 204c-6-24-10-50-10-76 0-174 132-318 300-338zM512 724.667c236 0 426-190 426-426s-190-426-426-426-426 190-426 426 190 426 426 426z" />
<glyph unicode="&#xe84d;" glyph-name="3d_rotation" d="M512 810.667c268 0 488-206 510-468h-64c-14 160-114 294-254 360l-58-56-162 162zM706 306.667c0 69.871-27.338 114-94 114h-40v-246h38c51.287 0 80.544 27.904 92 68 4 14 4 30 4 48v16zM612 468.667c76.364 0 121.865-38.664 144-94 8-20 10-44 10-68v-16c0-52.811-15.142-91.142-42-118-26.824-26.824-61.104-44-114-44h-98v340h100zM414 302.667c30.607-12.243 56-36.493 56-78 0-16-4-28-10-40s-12-24-22-32c-18.756-15.005-47.096-24-80-24-62.192 0-108 31.488-108 94h54c0-30.904 23.204-50 54-50 35.74 0 56 17.079 56 54 0 37.687-24.79 54-62 54h-32v44h32c34.608 0 58 16.061 58 50 0 33.049-17.68 50-52 50-28.888 0-50-17.163-50-46h-56c0 29.787 15.103 49.103 30 64 19.854 15.883 41.797 26 76 26 51.295 0 80.772-19.544 98-54 6-12 8-24 8-40 0-36.376-24.671-59.335-50-72zM320-105.333l58 56 162-162-28-2c-268 0-488 208-510 470h64c16-160 114-296 254-362z" />
<glyph unicode="&#xe869;" glyph-name="build" d="M968 0.667c18-12 18-42-4-60l-98-98c-18-18-42-18-60 0l-388 388c-98-38-212-18-294 64-86 86-108 214-56 316l188-184 128 128-184 184c102 46 230 30 316-56 82-82 102-196 64-294z" />
<glyph unicode="&#xe891;" glyph-name="invert_colors" d="M512-25.333v618l-180-180c-48-48-76-114-76-182 0-137.583 118.4-256 256-256zM754 472.667c134-134 134-348 0-482-66-66-154-100-242-100s-176 34-242 100c-134 134-134 348 0 482l242 242z" />
<glyph unicode="&#xe894;" glyph-name="language" d="M698 212.667h144c6 28 12 56 12 86s-6 58-12 86h-144c4-28 6-56 6-86s-2-58-6-86zM622-23.333c78 26 146 82 186 152h-126c-14-54-34-104-60-152zM612 212.667c4 28 6 56 6 86s-2 58-6 86h-200c-4-28-6-56-6-86s2-58 6-86h200zM512-41.333c36 52 64 108 82 170h-164c18-62 46-118 82-170zM342 468.667c14 54 34 104 60 152-78-26-146-82-186-152h126zM216 128.667c40-70 108-126 186-152-26 48-46 98-60 152h-126zM182 212.667h144c-4 28-6 56-6 86s2 58 6 86h-144c-6-28-12-56-12-86s6-58 12-86zM512 638.667c-36-52-64-108-82-170h164c-18 62-46 118-82 170zM808 468.667c-40 70-108 126-186 152 26-48 46-98 60-152h126zM512 724.667c236 0 426-190 426-426s-190-426-426-426-426 190-426 426 190 426 426 426z" />
<glyph unicode="&#xe8b4;" glyph-name="room" d="M512 320.667c58 0 106 48 106 106s-48 106-106 106-106-48-106-106 48-106 106-106zM512 724.667c166 0 298-132 298-298 0-224-298-554-298-554s-298 330-298 554c0 166 132 298 298 298z" />
<glyph unicode="&#xe8b8;" glyph-name="settings" d="M512 148.667c82 0 150 68 150 150s-68 150-150 150-150-68-150-150 68-150 150-150zM830 256.667l90-70c8-6 10-18 4-28l-86-148c-6-10-16-12-26-8l-106 42c-22-16-46-32-72-42l-16-112c-2-10-10-18-20-18h-172c-10 0-18 8-20 18l-16 112c-26 10-50 24-72 42l-106-42c-10-4-20-2-26 8l-86 148c-6 10-4 22 4 28l90 70c-2 14-2 28-2 42s0 28 2 42l-90 70c-8 6-10 18-4 28l86 148c6 10 16 12 26 8l106-42c22 16 46 32 72 42l16 112c2 10 10 18 20 18h172c10 0 18-8 20-18l16-112c26-10 50-24 72-42l106 42c10 4 20 2 26-8l86-148c6-10 4-22-4-28l-90-70c2-14 2-28 2-42s0-28-2-42z" />
<glyph unicode="&#xe8ee;" glyph-name="view_headline" d="M170 596.667h684v-84h-684v84zM170 340.667v86h684v-86h-684zM170 0.667v84h684v-84h-684zM170 170.667v86h684v-86h-684z" />
<glyph unicode="&#xe900;" glyph-name="goat" d="M1022 422.667c2-2 2-8 0-10l-50-64c-2-2-6-4-8-4l-30 6-14-44c-6-10-20-10-26 0l-28 60-46 10-94-224 34-272c0-6-4-8-8-8h-40c-4 0-6 2-8 6l-40 162-20 34-50-196c0-4-4-6-8-6h-42c-4 0-8 4-8 8l46 270h-270l-70-132 16-136c2-6-2-10-8-10h-40c-2 0-6 0-8 4l-56 204-68-78 12-120c2-6-2-10-8-10h-44c-4 0-8 2-8 4l-26 112 42 164v288s-46 18-46 60h548c0 0 96-2 190 66 0 0-16 44 12 72 0 0 56-40 72-50 20-12 34 10 28 28-4 12-18 56-90 84-9.158 3.053-30.421 4.736-26 18 0 4 4 6 8 6 88-12 140-84 154-116 2-4 40-30 36-76 0-6 0-10 4-14z" />
<glyph unicode="&#xe901;" glyph-name="tag" d="M876.64 316.416l-391.2 388.512h-356.512l-0.832-356.064 386.496-394.528c25.408-25.408 66.272-25.76 91.296-0.736l271.488 271.52c24.992 24.992 24.672 65.888-0.736 91.296zM223.424 543.872c0 35.328 28.672 64 64 64s64-28.672 64-64c0-35.36-28.672-64-64-64s-64 28.64-64 64zM571.616 97.536l-248.896 248.896 22.624 22.624 248.896-248.896-22.624-22.624zM639.488 165.408l-248.896 248.896 22.656 22.624 248.864-248.896-22.624-22.624zM707.36 233.312l-248.864 248.896 22.624 22.624 248.864-248.896-22.624-22.624z" />
<glyph unicode="&#xe902;" glyph-name="cabinet" d="M160-128v768l133.344 128h405.344l133.312-128v-768h-672zM800 128v480h-608v-704h608v224zM768 384h-544v192h544v-192zM576 512h-160v-32h160v32zM768 160h-544v192h544v-192zM576 288h-160v-32h160v32zM768-64h-544v192h544v-192zM576 64h-160v-32h160v32z" />
<glyph unicode="&#xe903;" glyph-name="event_seat" d="M726 256.667h-428v340c0 46 40 86 86 86h256c46 0 86-40 86-86v-340zM86 384.667h128v-128h-128v128zM810 384.667h128v-128h-128v128zM170-85.333v256h684v-256h-128v128h-428v-128h-128z" />
<glyph unicode="&#xe904;" glyph-name="cabinet2" d="M160-160v800l133.344 128h405.344l133.312-128v-800h-672zM192-128h608v736h-608v-736zM224 224h544v-320h-544v320zM416 96v-32h160v96h-32v-64h-96v64h-32v-64zM224 576h544v-320h-544v320zM416 416h160v96h-32v-64h-96v64h-32v-96z" />
<glyph unicode="&#xe905;" glyph-name="phone" d="M703.968 704h-384c-35.328 0-63.968-28.672-63.968-64v-640c0-35.328 28.64-64 63.968-64h384c35.36 0 64.032 28.672 64.032 64v640c0 35.328-28.672 64-64.032 64zM416 672h160l1.984-32h-161.984v32zM511.328-16c-17.664 0-32 14.304-32 32s14.336 32 32 32c17.696 0 32-14.304 32-32s-14.336-32-32-32zM703.968 96h-384l0.672 512h383.328v-512z" />
<glyph unicode="&#xe906;" glyph-name="ipod" d="M704 704h-384c-35.36 0-64-28.672-64-64v-640c0-35.328 28.64-64 64-64h384c35.328 0 64 28.672 64 64v640c0 35.328-28.672 64-64 64zM512 0c-61.888 0-112 50.144-112 112 0 61.888 50.112 112 112 112 61.856 0 112-50.112 112-112 0-61.856-50.144-112-112-112zM704 288h-384l0.672 352h383.328v-352zM512 176c-35.328 0-64-28.672-64-64s28.672-64 64-64 64 28.672 64 64-28.672 64-64 64z" />
<glyph unicode="&#xe907;" glyph-name="tv" d="M896.48-94.208h-65.568v-33.792h-97.376v33.792h-445.056v-33.792h-97.376l0.032 33.792h-63.616c-35.136 0-63.584 28.48-63.584 63.584v605.984c0 35.104 28.48 63.584 63.584 63.584h222.528c0 0 14.016 19.456 39.648 37.184l-81.696 81.728 22.496 22.464 88.16-88.128c16.768 7.2 36.192 12.32 58.56 12.32 23.776 0 43.936-5.856 61.12-13.76l89.568 89.568 22.464-22.464-83.648-83.68c23.328-17.184 35.68-35.264 35.68-35.264h294.048c35.136 0 63.584-28.48 63.584-63.584v-605.984c0.032-35.104-28.448-63.552-63.552-63.552zM669.984 511.776c0 17.568-14.24 31.776-31.808 31.776h-445.056c-17.568 0-31.808-14.208-31.808-31.776v-478.848c0-17.568 14.24-31.776 31.808-31.776h445.024c17.568 0 31.808 14.208 31.808 31.776v478.848zM769.344 1.152h93.344v31.776h-93.344v-31.776zM769.344 64.736h93.344v31.744h-93.344v-31.744zM769.344 130.304h93.344v31.776h-93.344v-31.776zM769.344 193.888h93.344v31.808h-93.344v-31.808zM813.792 542.784c-26.304 0-47.68-21.344-47.68-47.68s21.376-47.68 47.68-47.68c26.336 0 47.68 21.344 47.68 47.68s-21.344 47.68-47.68 47.68zM813.792 416c-26.304 0-47.68-21.312-47.68-47.648s21.376-47.68 47.68-47.68c26.336 0 47.68 21.344 47.68 47.68s-21.344 47.648-47.68 47.648z" />
<glyph unicode="&#xe908;" glyph-name="camera" d="M896 608l-480.128-0.544 0.128 94.56-256 1.984v-96h-64c-35.328 0-64-28.672-64-64v-544c0-35.328 28.672-64 64-64h800c35.328 0 64 28.672 64 64v544c0 35.328-28.672 64-64 64zM224 640h128v-96h-128v96zM384 33.344c-123.712 0-224 100.288-224 224s100.288 224 224 224c123.68 0 224-100.288 224-224s-100.32-224-224-224zM816 399.328c-35.36 0-64 28.64-64 64 0 35.328 28.64 64 64 64 35.328 0 64-28.672 64-64s-28.672-64-64-64zM384 396c-79.52 0-144-64.48-144-144s64.48-144 144-144 144 64.48 144 144-64.48 144-144 144z" />
<glyph unicode="&#xe909;" glyph-name="camera2" d="M864 286.496l-160 64.096v128.256l160 64.128c17.696 0 32-14.368 32-32.064v-192.384c0-17.696-14.304-32.032-32-32.032zM560 510.944c-79.52 0-144 64.608-144 144.288s64.48 144.288 144 144.288 144-64.608 144-144.288c0-79.712-64.48-144.288-144-144.288zM272 510.944c-79.52 0-144 64.608-144 144.288s64.48 144.288 144 144.288 144-64.608 144-144.288c0-79.712-64.48-144.288-144-144.288zM672 510.944v-288.576h-178.624c-1.664-26.624-13.312-49.568-30.624-62.56h18.048l127.648-287.872h-31.808l-42.56 96h-85.12v-159.936h-31.904v159.936h-86.464l-43.232-96h-31.84l129.664 287.872h12.064c-17.312 12.992-28.96 35.936-30.624 62.56h-206.624v288.576h512zM417.024 149.888c-1.312 0.32-2.528 0.992-3.808 1.44l-68.224-151.424h72.032v149.984zM448.928 152.192v-152.32h70.944l-68.032 153.44c-0.928-0.448-1.888-0.736-2.912-1.12z" />
<glyph unicode="&#xe90a;" glyph-name="film" d="M970.72-14.24c-4.096 7.072-17.216 9.248-39.392 6.464-40.8-5.28-70.432 8.032-88.896 40.032-13.984 24.192-17.6 48.512-10.848 72.96s26.752 59.328 59.968 104.704l20.768 28.928c61.696 85.216 74.336 159.328 37.952 222.4-37.024 64.192-144 58.784-220.896 25.792-62.208 128.288-193.28 216.96-345.376 216.96-212.096 0-384-171.936-384-384s171.904-384 384-384c212.064 0 384 171.936 384 384 0 47.008-8.864 91.872-24.32 133.472 25.952 9.312 56.992 16.064 86.272 17.152 38.464 1.408 73.28-6.656 87.104-30.592 30.816-53.408 15.936-116.512-44.64-189.216l-12.416-14.912c-70.848-85.024-87.776-159.488-50.912-223.424 14.912-25.792 38.624-44.192 71.2-55.264 32.576-11.040 60.128-9.984 82.72 3.072 11.2 6.464 13.792 14.976 7.712 25.472zM208 238.016c-44.192 0-80 35.808-80 80 0 44.16 35.808 80 80 80s80-35.808 80-80c0-44.192-35.808-80-80-80zM384 62.016c-44.192 0-80 35.808-80 80s35.808 80 80 80 80-35.808 80-80-35.808-80-80-80zM352.64 318.016c0 17.664 14.368 32 32.032 32s32-14.304 32-32c0-17.696-14.336-32-32-32s-32.032 14.304-32.032 32zM384 414.016c-44.192 0-80 35.808-80 80 0 44.16 35.808 80 80 80s80-35.808 80-80c0-44.192-35.808-80-80-80zM560 238.016c-44.192 0-80 35.808-80 80 0 44.16 35.808 80 80 80s80-35.808 80-80c0-44.192-35.808-80-80-80z" />
<glyph unicode="&#xe90b;" glyph-name="microphone" d="M736 238.848v47.776h-31.872v-47.776c0-114.368-94.688-207.104-209.056-207.136h-0.128c-114.368 0.032-207.072 92.736-207.072 207.136v47.776h-31.872v-47.776c0-120.416 89.312-219.008 205.12-235.584v-96.672c-90.752-6.848-159.328-37.568-159.328-66.048 0-0.736 393.024-0.736 393.024 0 0 29.568-74.112 61.312-169.952 66.496v95.84c117.728 14.816 211.136 114.176 211.136 235.968zM494.976 65.568c96.8 0 177.28 78.496 177.28 175.296v45.792h-352.576v-45.792c0-96.8 78.496-175.296 175.296-175.296zM672.256 592.8c0 96.8-80.48 175.264-177.28 175.264-96.768 0-175.296-78.464-175.296-175.264v-274.304h352.576v274.304zM560 703.616c8.8 0 16-7.168 16-16s-7.2-16-16-16c-8.832 0-16 7.168-16 16s7.168 16 16 16zM496 703.616c8.8 0 16-7.168 16-16s-7.2-16-16-16c-8.832 0-16 7.168-16 16s7.168 16 16 16zM432 703.616c8.8 0 16-7.168 16-16s-7.2-16-16-16c-8.832 0-16 7.168-16 16s7.168 16 16 16zM368 351.616c-8.832 0-16 7.168-16 16s7.168 16 16 16c8.8 0 16-7.168 16-16s-7.2-16-16-16zM368 415.616c-8.832 0-16 7.168-16 16s7.168 16 16 16c8.8 0 16-7.168 16-16s-7.2-16-16-16zM368 479.616c-8.832 0-16 7.168-16 16s7.168 16 16 16c8.8 0 16-7.168 16-16s-7.2-16-16-16zM368 543.616c-8.832 0-16 7.168-16 16s7.168 16 16 16c8.8 0 16-7.168 16-16s-7.2-16-16-16zM400 607.616c-8.832 0-16 7.168-16 16s7.168 16 16 16c8.8 0 16-7.168 16-16s-7.2-16-16-16zM432 351.616c-8.832 0-16 7.168-16 16s7.168 16 16 16c8.8 0 16-7.168 16-16s-7.2-16-16-16zM432 415.616c-8.832 0-16 7.168-16 16s7.168 16 16 16c8.8 0 16-7.168 16-16s-7.2-16-16-16zM432 479.616c-8.832 0-16 7.168-16 16s7.168 16 16 16c8.8 0 16-7.168 16-16s-7.2-16-16-16zM432 543.616c-8.832 0-16 7.168-16 16s7.168 16 16 16c8.8 0 16-7.168 16-16s-7.2-16-16-16zM464 607.616c-8.832 0-16 7.168-16 16s7.168 16 16 16c8.8 0 16-7.168 16-16s-7.2-16-16-16zM496 351.616c-8.832 0-16 7.168-16 16s7.168 16 16 16c8.8 0 16-7.168 16-16s-7.2-16-16-16zM496 415.616c-8.832 0-16 7.168-16 16s7.168 16 16 16c8.8 0 16-7.168 16-16s-7.2-16-16-16zM496 479.616c-8.832 0-16 7.168-16 16s7.168 16 16 16c8.8 0 16-7.168 16-16s-7.2-16-16-16zM496 543.616c-8.832 0-16 7.168-16 16s7.168 16 16 16c8.8 0 16-7.168 16-16s-7.2-16-16-16zM528 607.616c-8.832 0-16 7.168-16 16s7.168 16 16 16c8.8 0 16-7.168 16-16s-7.2-16-16-16zM560 351.616c-8.832 0-16 7.168-16 16s7.168 16 16 16c8.8 0 16-7.168 16-16s-7.2-16-16-16zM560 415.616c-8.832 0-16 7.168-16 16s7.168 16 16 16c8.8 0 16-7.168 16-16s-7.2-16-16-16zM560 479.616c-8.832 0-16 7.168-16 16s7.168 16 16 16c8.8 0 16-7.168 16-16s-7.2-16-16-16zM560 543.616c-8.832 0-16 7.168-16 16s7.168 16 16 16c8.8 0 16-7.168 16-16s-7.2-16-16-16zM592 607.616c-8.832 0-16 7.168-16 16s7.168 16 16 16c8.8 0 16-7.168 16-16s-7.2-16-16-16zM624 351.616c-8.832 0-16 7.168-16 16s7.168 16 16 16c8.8 0 16-7.168 16-16s-7.2-16-16-16zM624 415.616c-8.832 0-16 7.168-16 16s7.168 16 16 16c8.8 0 16-7.168 16-16s-7.2-16-16-16zM624 479.616c-8.832 0-16 7.168-16 16s7.168 16 16 16c8.8 0 16-7.168 16-16s-7.2-16-16-16zM624 543.616c-8.832 0-16 7.168-16 16s7.168 16 16 16c8.8 0 16-7.168 16-16s-7.2-16-16-16z" />
<glyph unicode="&#xe90c;" glyph-name="inbox" d="M691.2 576h-352l-211.2-320v-160c0-35.328 28.672-64 64-64h640c35.328 0 64 28.672 64 64v160l-204.8 320zM718.88 255.264l-65.664-128.064-274.848 0.64-70.432 127.84-130.752 0.736 181.184 287.2h313.632l179.2-287.2-132.32-1.152zM384 160h256v32h-256v-32zM378.656 512.096l-141.312-224.096h557.312l-144 224.096h-272zM352 224h320v32h-320v-32z" />
<glyph unicode="&#xe90d;" glyph-name="image" d="M959.884 704c0.040-0.034 0.082-0.076 0.116-0.116v-767.77c-0.034-0.040-0.076-0.082-0.116-0.116h-895.77c-0.040 0.034-0.082 0.076-0.114 0.116v767.772c0.034 0.040 0.076 0.082 0.114 0.114h895.77zM960 768h-896c-35.2 0-64-28.8-64-64v-768c0-35.2 28.8-64 64-64h896c35.2 0 64 28.8 64 64v768c0 35.2-28.8 64-64 64v0zM832 544c0-53.020-42.98-96-96-96s-96 42.98-96 96 42.98 96 96 96 96-42.98 96-96zM896 0h-768v128l224 384 256-320h64l224 192z" />
<glyph unicode="&#xe90e;" glyph-name="fingerprint" d="M636-127.333h-6c-68 18-112 44-158 90-60 60-92 138-92 222 0 70 58 126 130 126s132-56 132-126c0-46 38-82 88-82s90 36 90 82c0 160-140 292-310 292-122 0-232-68-282-172-16-34-24-76-24-120 0-34 2-86 28-154 9.157-27.471-30.939-36.654-40-14-20 56-32 110-32 168 0 52 10 98 30 138 56 120 182 198 320 198 194 0 352-152 352-336 0-70-60-124-132-124s-130 54-130 124c0 46-40 84-90 84s-88-38-88-84c0-72 28-140 80-192 40-40 80-62 140-78 12-2 16-14 14-26-2-10-12-16-20-16zM530 184.667c0-97.515 80.578-182 192-182 19.928 0 65.546 14.722 70-12 2-12-6-24-18-26-24-4-46-4-52-4-50 0-96 12-132 38-64 44-102 112-102 186 0 12 10 22 22 22s20-10 20-22zM416-119.333c-6 0-10 2-14 6-38 38-58 62-86 114-30 52-46 116-46 184 0 126 108 230 242 230s242-104 242-230c0-12-10-20-22-20s-22 8-22 20c0 104-88 188-198 188s-198-84-198-188c0-62 12-118 38-164 28-50 48-70 80-104 8-8 8-22 0-30-4-4-10-6-16-6zM150 396.667c-17.624 0-27.785 15.691-18 32 42 60 96 108 160 140 134 70 306 70 440 0 64-32 118-78 160-138 6-10 4-24-6-30s-24-4-30 6c-38 54-86 94-144 124-122 62-278 64-400 0-58-30-108-72-146-126-4-6-10-8-16-8zM760 620.667c-4 0-8 0-10 2-82 42-154 60-238 60s-166-20-238-60c-23.381-14.029-43.278 24.033-20 38 80 44 166 64 258 64 90 0 170-20 258-64 18.211-10.927 10.406-40-10-40z" />
<glyph unicode="&#xe90f;" glyph-name="cassette" d="M896.544-64.512h-66.080l-64.064 192.256h-542.752l-64.096-192.256h-64.096c-53.056 0-96.128 43.072-96.128 96.128v576.768c0 53.088 43.072 96.096 96.128 96.096h801.056c53.088 0 96.128-43.040 96.128-96.096v-576.768c0.032-53.056-43.008-96.128-96.096-96.128zM894.528 608.384h-799.072v-416.544h799.072v416.544zM832.448 255.936h-672.896v288.352h672.864v-288.352zM303.616 480.736c-44.256 0-80.096-35.872-80.096-80.096s35.84-80.096 80.096-80.096 80.128 35.872 80.128 80.096-35.872 80.096-80.128 80.096zM542.048 432.128h-94.112v-64.064h94.112v64.064zM688.416 480.736c-44.256 0-80.096-35.872-80.096-80.096s35.84-80.096 80.096-80.096c44.224 0 80.096 35.872 80.096 80.096s-35.872 80.096-80.096 80.096zM686.24 368.064c-17.696 0-32.032 14.336-32.032 32.032s14.336 32.032 32.032 32.032 32.064-14.336 32.064-32.032c0-17.696-14.368-32.032-32.064-32.032zM305.76 368.064c-17.696 0-32.032 14.336-32.032 32.032s14.336 32.032 32.032 32.032c17.728 0 32.064-14.336 32.064-32.032s-14.368-32.032-32.064-32.032zM744.32 95.712l56.096-158.88h-610.816l54.048 158.88h500.672zM704.288-0.416h32.032v32.032h-32.032v-32.032zM640.192-0.416h32.064v32.032h-32.064v-32.032zM415.904-0.416h158.208v32.032h-158.208v-32.032zM319.776-0.416h32.032v32.032h-32.032v-32.032zM255.68-0.416h32.032v32.032h-32.032v-32.032z" />
<glyph unicode="&#xe910;" glyph-name="chronometer" d="M897.728 237.728c0-221.856-179.84-401.728-401.728-401.728-221.856 0-401.728 179.872-401.728 401.728 0 215.104 169.152 390.144 381.664 400.672v69.312h-30.112c-17.76 0-32.16 14.4-32.16 32.16s14.4 32.128 32.16 32.128h96.384c17.76 0 32.16-14.368 32.16-32.128s-14.4-32.16-32.16-32.16h-34.112v-68.896c216.224-6.4 389.632-183.328 389.632-401.088zM475.936 514.912v73.312c-99.488-5.632-187.712-52.48-248.512-123.456l52.896-52.896-22.72-22.752-50.080 50.112c-40.768-57.536-65.024-127.584-65.024-203.488 0-3.392 0.48-8.032 0.48-8.032h77.824v-32.16h-75.52c7.808-65.664 33.824-127.584 72.576-177.088l39.776 39.776 22.72-22.72-41.472-41.504c60.128-63.872 143.616-105.504 237.056-110.784v87.328h32.128v-87.744c95.648 3.264 181.44 44.576 243.168 109.12l-45.568 45.568 22.72 22.72 44.064-44.032c39.68 49.92 66.368 112.672 74.304 179.328h-81.6v32.16h83.872c0.096 3.328 0.512 4.64 0.512 8.032 0 78.016-25.6 149.792-68.416 208.16l-52.736-52.736-22.72 22.72 55.232 55.2c-62.304 70.496-152.096 116.192-252.8 119.584v-73.728h-32.16zM510.048 227.68h112.512c8.864 0 16.064-7.232 16.064-16.064 0-8.864-7.2-16.096-16.064-16.096h-128.576c-8.864 0-16.064 7.232-16.064 16.096v222.944c0 8.864 7.2 16.064 16.064 16.064s16.064-7.2 16.064-16.064v-206.88z" />
<glyph unicode="&#xe911;" glyph-name="watch" d="M896 255.008h-32v-224c0-52.992-43.008-96-96-96h-128v-126.016h-352v126.016h-128c-53.024 0-96 43.008-96 96v544c0 53.024 42.976 96 96 96h128v128h352v-128h128c52.992 0 96-42.976 96-96v-224h32c17.664 0 32-14.336 32-32v-32c0-17.664-14.336-32-32-32zM800 543.008c0 35.36-28.672 64-64 64h-544c-35.328 0-64-28.672-64-64v-480c0-35.328 28.672-64 64-64h544c35.328 0 64 28.672 64 64v480zM672 287.008h-64v96h32v-64h32v64h32v-160h-32v64zM512 223.008h-32v160h96v-160h-64zM544 351.008h-32v-96h32v96zM416 287.008h32v-32h-32v32zM416 351.008h32v-32h-32v32zM320 223.008v32h32v32h-32v32h32v32h-32v32h64v-160h-64zM224 223.008v96h32v32h-32v32h64v-96h-32v-32h32v-32h-64z" />
<glyph unicode="&#xe912;" glyph-name="position" d="M528 49.696v31.872c107.264-3.168 191.776-37.568 191.776-79.584 0-44.128-92.992-81.92-207.744-81.92s-207.744 37.792-207.744 81.92c0 42.016 84.512 76.448 191.744 79.584v-31.872c-89.568-2.208-159.776-22.72-159.776-47.712 0-26.464 78.688-51.936 175.776-51.936 97.056 0 175.744 25.472 175.744 51.936-0.032 24.992-70.208 45.472-159.776 47.712zM336.512 544.16c0 97.056 80.672 175.776 177.792 175.776 97.088 0 175.776-78.72 175.776-175.776 0-83.424-58.176-153.152-136.192-171.136l-41.888-423.008-42.016 424.192c-75.584 19.68-133.472 88.192-133.472 169.952zM512 591.232c0 26.496-21.472 47.936-47.936 47.936-26.496 0-47.968-21.44-47.968-47.936 0-26.464 21.472-47.936 47.968-47.936s47.936 21.44 47.936 47.936z" />
<glyph unicode="&#xe913;" glyph-name="gamepad" horiz-adv-x="1054" d="M736.448 689.312c-45.312 0-133.312-64-208-64-74.656 0-168 64-208 64-274.656 0-432-738.624-226.656-738.624 173.344 0 196.672 216 433.984 216 192 0 304.672-213.376 432.672-213.376 205.312 0 50.688 736-224 736zM304.416 273.312c-79.52 0-144 64.512-144 144 0 79.52 64.48 144 144 144s144-64.48 144-144c0-79.488-64.448-144-144-144zM686.432 353.312c-17.696 0-32 14.304-32 32s14.304 32 32 32 32-14.304 32-32-14.304-32-32-32zM784.448 257.312c-17.696 0-32 14.304-32 32s14.304 32 32 32 32-14.304 32-32-14.336-32-32-32zM784.448 449.312c-17.696 0-32 14.304-32 32s14.304 32 32 32 32-14.304 32-32-14.336-32-32-32zM880.448 353.312c-17.696 0-32 14.304-32 32s14.304 32 32 32 32-14.304 32-32-14.336-32-32-32zM304.416 497.312c-44.16 0-80-35.808-80-80s35.84-80 80-80c44.192 0 80 35.808 80 80s-35.808 80-80 80z" />
<glyph unicode="&#xe914;" glyph-name="phone2" d="M832-192h-672c-35.36 0-64 28.672-64 64v768c0 35.36 28.64 64 64 64v-768c0-35.328 28.672-64 64-64h128c35.36 0 64 28.672 64 64v768h416c35.36 0 64-28.672 64-64v-768c0-35.328-28.64-64-64-64zM672-96h64v64h-64v-64zM672 0h64v64h-64v-64zM672 96h64v64h-64v-64zM672 192h64v64h-64v-64zM576-96h64v64h-64v-64zM576 0h64v64h-64v-64zM576 96h64v64h-64v-64zM576 192h64v64h-64v-64zM832 608c0 17.696-14.304 32-32 32h-288c-17.664 0-32-14.304-32-32v-128c0-17.664 14.336-32 32-32h288c17.696 0 32 14.336 32 32v128zM832 256h-64v-64h64v64zM832 160h-64v-64h64v64zM832 64h-64v-64h64v64zM832-32h-64v-64h64v64zM352-96h-128c-17.664 0-32 14.304-32 32v800c0 17.696 14.336 32 32 32h62.016v64h33.984v-64h32c17.664 0 32-14.304 32-32v-800c0-17.696-14.336-32-32-32z" />
<glyph unicode="&#xe915;" glyph-name="trashcan" d="M256 0c0-52.992 42.976-96 96-96h320c52.992 0 96 43.008 96 96l64 512h-640l64-512zM608 416h64v-416h-64v416zM480 416h64v-416h-64v416zM352 416h64v-416h-64v416zM816 640h-208c0 0-14.336 64-32 64h-128c-17.696 0-32-64-32-64h-208c-26.528 0-48-21.472-48-48s0-48 0-48h704c0 0 0 21.472 0 48s-21.504 48-48 48z" />
<glyph unicode="&#xe916;" glyph-name="lab" d="M618.624 222.688c0 0-53.248-68-121.28 0-65.984 64-113.984 0-113.984 0l-158.944-313.28c-4.608-17.056 5.536-34.592 22.592-39.168h527.904c17.056 4.576 27.2 22.080 22.624 39.168l-178.912 313.28zM862.048-74.56l-255.328 429.696v0.8l-0.448 251.808h17.632c26.432 0 47.936 21.472 47.936 47.968 0 26.464-21.504 47.936-47.936 47.936h-255.84c-26.464 0-47.936-21.472-47.936-47.936 0-26.496 21.472-47.968 47.936-47.968h15.424l-0.512-251.872-221.056-430.432c-13.696-51.168 16.672-103.744 67.808-117.44h564.512c51.2 13.696 81.568 66.272 67.808 117.44zM785.696-159.936l-547.456 0.608c-34.080 9.152-54.304 44.224-45.184 78.272l222.304 435.712 0.672 285.056h-47.936c-8.8 0-15.968 7.168-15.968 16 0 8.8 7.168 15.968 15.968 15.968h255.84c8.8 0 15.936-7.168 15.936-15.968 0-8.832-7.136-16-15.936-16h-47.936l0.8-284 254.048-437.312c9.152-34.144-11.104-69.216-45.152-78.336zM527.36 751.616c0-17.664 14.336-32 32-32s32 14.336 32 32-14.304 32-32 32-32-14.304-32-32zM559.36 831.616c26.496 0 48 21.472 48 48s-21.504 48-48 48-48-21.472-48-48 21.504-48 48-48zM431.36 751.616c17.696 0 32 14.336 32 32s-14.304 32-32 32-32-14.336-32-32 14.304-32 32-32z" />
<glyph unicode="&#xe917;" glyph-name="football" horiz-adv-x="1042" d="M713.696-12.576c-267.808-154.624-570.88-131.104-676.928 52.576-106.016 183.68 25.12 457.952 292.96 612.576s570.88 131.136 676.96-52.576c106.048-183.648-25.12-457.92-292.992-612.576zM80.32 280.576c-25.056-75.392-23.392-149.184 11.68-209.984 35.104-60.768 98.144-99.104 176-115.072l-187.68 325.056zM654.688 688.928c-92.8-6.080-195.168-36.672-293.152-93.216-99.68-57.6-178.464-132.544-230.112-211.392l252-436.48c94.112 5.312 198.4 36.032 298.144 93.6 97.952 56.576 175.616 129.952 227.328 207.296l-254.208 440.192zM961.824 353.824c26.048 76.384 24.8 151.232-10.688 212.768-35.552 61.568-99.744 100.032-178.944 115.648l189.632-328.416zM550.56 230.048l-25.952-15.008-31.040 53.696-0.128-0.064-29.312-16.928 31.008-53.696-25.984-15.008-31.008 53.696-0.128-0.064-29.312-16.928 31.008-53.696-25.984-15.008-31.008 53.728-0.128-0.096-55.424-32-16 27.712 55.552 32.096-32.384 56.096 25.984 15.008 32.416-56.096 29.44 16.992-32.416 56.16 25.984 14.976 32.416-56.096 29.44 16.992-32.384 56.128 25.984 14.976 32.416-56.096 29.44 16.992-32.384 56.128 25.984 14.976 32.384-56.096 29.44 16.992-32.384 56.096 25.952 15.008 32.448-56.096 29.44 16.992-32.448 56.128 25.984 14.976 32.384-56.096 57.888 33.376 16-27.712-57.888-33.408 31.008-53.696-25.952-15.008-31.008 53.696-29.44-16.992 31.008-53.696-25.984-15.008-31.008 53.696-0.128-0.064-29.312-16.928 31.008-53.696-25.984-15.008-31.008 53.696-0.128-0.064-29.312-16.928 30.944-53.728z" />
<glyph unicode="&#xe918;" glyph-name="eightball" d="M512 704c-212.096 0-384-171.936-384-384s171.904-384 384-384c212.064 0 384 171.936 384 384s-171.936 384-384 384zM512 110.016c-114.88 0-208 93.12-208 208s93.12 208 208 208 208-93.12 208-208-93.12-208-208-208zM538.656 327.552c9.088 3.392 15.904 8.256 20.384 14.528s6.72 13.664 6.72 22.144c0 13.312-4.864 24.608-14.624 33.856-9.728 9.28-22.56 13.92-38.56 13.92-15.904 0-28.64-4.544-38.176-13.6-9.6-9.056-14.368-20.256-14.368-33.536 0-8.8 2.24-16.352 6.816-22.688 4.512-6.304 11.488-11.2 20.864-14.592-11.264-2.944-19.936-8.416-26.016-16.448-6.080-8.064-9.152-18.048-9.152-29.984 0-16 5.536-29.376 16.64-40.096 11.072-10.688 25.664-16.064 43.744-16.064 18.048 0 32.672 5.344 43.744 16 11.072 10.688 16.64 23.872 16.64 39.52 0 11.328-2.944 21.088-8.832 29.28s-14.528 14.080-25.824 17.76zM483.264 365.632c0 7.616 2.784 14.176 8.384 19.648 5.568 5.472 12.672 8.224 21.248 8.224 8.512 0 15.552-2.784 21.184-8.416 5.632-5.6 8.448-12.512 8.448-20.704 0-7.872-2.752-14.528-8.192-19.968s-12.512-8.16-21.184-8.16c-8.928 0-16.128 2.752-21.632 8.224s-8.256 12.512-8.256 21.152zM539.616 253.888c-6.944-6.944-15.776-10.368-26.56-10.368-6.88 0-13.344 1.632-19.328 4.928-6.016 3.296-10.528 7.936-13.504 13.952s-4.48 12.224-4.48 18.624c0 10.496 3.424 19.264 10.304 26.24s15.616 10.496 26.24 10.496c10.88 0 19.872-3.552 27.008-10.624s10.688-16.064 10.688-26.88c0.032-10.688-3.456-19.488-10.368-26.368z" />
<glyph unicode="&#xe919;" glyph-name="baseball" d="M638.432 320c0 206.304 106.624 322.208 106.624 322.208s-94.112 76.352-234.656 76.352c-140.544 0-234.688-76.416-234.688-76.416s108.544-88.16 108.544-322.144c0-225.792-109.248-321.664-109.248-321.664s113.568-76.896 235.392-76.896c124.704 0 234.752 76.48 234.752 76.48s-106.72 100-106.72 322.080zM248.928 621.056c0 0-132.576-80.8-132.576-302.4 0-221.568 134.048-294.080 134.048-294.080s97.696 72.544 97.696 294.080c0 221.6-99.168 302.4-99.168 302.4zM771.872 615.072c0 0-99.136-74.816-99.136-296.416 0-221.568 97.632-294.080 97.632-294.080s137.248 72.544 137.248 294.080c0 221.6-135.744 296.416-135.744 296.416z" />
<glyph unicode="&#xe91a;" glyph-name="soccer" d="M921.248 507.104c-0.192 0.48-0.448 0.96-0.672 1.472l0.928-0.16-0.256-1.312zM808 121.056l-149.376-6.208-78.016 137.12 80.736 145.792 156.384-5.184 66.752-136.288-76.48-135.232zM406.656 253.92l-78.368 141.792 81.92 136.672 167.072 2.56 82.048-136.096-80.64-145.504-172.032 0.576zM410.112 534.72l-61.76 106.336 82.048 100.096 143.2 4.576 76.32-94.528-73.056-113.92-166.752-2.56zM331.968 120.032l-132.32 12.928-63.744 127.456 55.616 129.216 134.56 5.152 78.4-141.856-72.512-132.896zM793.952 634.912l12.672 25.184c48-41.632 86.944-93.184 113.952-151.52l-47.424 7.552-79.2 118.784zM652.32 652l-76.448 94.624c1.888 2.304 12.064 14.688 12.256 14.88-68.512 11.456-131.008 5.6-172.192-4.064 0.288-0.192 10.208-12.736 12.256-15.328l-82.080-100.096-122.4-20.608-10.912 33.376-1.888-0.576c79.808 71.936 185.152 116.128 301.088 116.128 111.936 0 214.048-41.056 292.8-108.64l-12.928-25.728-139.552 16.032zM148.448 504.896l-51.456-12.128 0.576-2.24 50.56 11.904 41.6-111.104-55.808-129.696c-7.552 0.736-65.952 6.336-65.952 2.784 10.24-85.92 42.848-160.672 99.008-230.592l32.96 96.736 132.096-12.896 83.424-126.592-57.6-93.792c-172.64 63.072-296.192 228.256-296.192 422.72 0 132.672 57.696 251.52 148.96 333.952l11.072-33.984-73.248-115.072zM571.488-13.92l68.672-96.16 1.952 1.376-68.256 95.456 84.8 125.76 149.248 6.176c3.008-6.752 41.248-92.736 40.992-92.736 62.944 73.696 94.56 147.552 105.984 231.744-0.128 0-61.248-0.256-68.448-0.32l-66.816 136.576 53.888 119.712 47.552-7.584 0.128 0.992c26.112-57.024 41.056-120.256 41.056-187.104 0-248.704-201.632-450.336-450.304-450.336-53.408 0-104.384 9.792-151.904 26.848l57.504 93.6 153.952-4zM359.488-104.544l-1.984 1.216 0.384 0.64c0.736-0.288 1.504-0.544 2.24-0.8l-0.64-1.056zM210.592 654.080l0.352 0.128c-0.128-0.096-0.224-0.192-0.288-0.256l-0.064 0.128zM805.248 662.56l2.048-1.024-0.672-1.44c-0.64 0.544-1.184 1.088-1.824 1.632l0.448 0.832z" />
<glyph unicode="&#xe91b;" glyph-name="microwave" horiz-adv-x="1152" d="M1120-64h-255.968v736h255.968c17.696 0 32-14.304 32-32v-672c0-17.664-14.304-32-32-32zM992.032 64h32v32h-32v-32zM992.032 128h32v32h-32v-32zM992.032 192h32v32h-32v-32zM928.032 64h31.968v32h-31.968v-32zM928.032 128h31.968v32h-31.968v-32zM928.032 192h31.968v32h-31.968v-32zM1088.032 544h-160v-96h160v96zM1088.032 224h-32v-32h32v32zM1088.032 160h-32v-32h32v32zM1088.032 96h-32v-32h32v32zM0-32v672c0 17.696 14.336 32 32.032 32h800v-736h-800c-17.696 0-32.032 14.336-32.032 32zM769.248 271.712c17.696 0 32 14.336 32 32 0 17.696-14.304 32-32 32-17.664 0-32-14.304-32-32 0-17.664 14.336-32 32-32zM128 96c0-17.664 14.336-32 32.032-32h511.968c17.696 0 32 14.336 32 32v416c0 17.696-14.304 32-32 32h-511.968c-17.696 0-32.032-14.304-32.032-32v-416z" />
<glyph unicode="&#xe91c;" glyph-name="refrigerator" d="M256-32c0-17.696 14.304-32 32-32h32v-32h64v32h256v-32h64v32h32c17.664 0 32 14.304 32 32v256h-512v-256zM288 192h32v-96h-32v96zM736 704h-448c-17.696 0-32-14.336-32-32v-416h512v416c0 17.664-14.304 32-32 32zM320 288h-32v96h32v-96z" />
<glyph unicode="&#xe91d;" glyph-name="oven" d="M960-96h-928c-17.696 0-32 14.336-32 32v544h992v-544c0-17.664-14.336-32-32-32zM864 384c0 17.696-14.336 32-32 32h-672c-17.696 0-32-14.304-32-32v-384c0-17.664 14.304-32 32-32h672c17.664 0 32 14.336 32 32v384zM288 352h416v-32h-416v32zM0 640c0 17.696 14.304 32 32 32h64c0 0 7.168 32 15.968 32h256.032c8.8 0 16-32 16-32h224c0 0 7.168 32 16 32h256c8.8 0 16-32 16-32h64c17.664 0 32-14.304 32-32v-128h-992v128zM911.328 543.328c26.528 0 48 21.472 48 48 0 26.496-21.472 48-48 48-26.496 0-48-21.504-48-48 0-26.528 21.472-48 48-48zM785.312 543.328c26.496 0 48 21.472 48 48 0 26.496-21.504 48-48 48s-48-21.504-48-48c0-26.528 21.504-48 48-48zM657.312 543.328c26.528 0 48 21.472 48 48 0 26.496-21.472 48-48 48-26.496 0-48-21.504-48-48 0-26.528 21.504-48 48-48zM529.312 543.328c26.496 0 48 21.472 48 48 0 26.496-21.504 48-48 48s-48-21.504-48-48c0-26.528 21.504-48 48-48z" />
<glyph unicode="&#xe91e;" glyph-name="washingmachine" d="M128 416v-480c0-17.696 14.304-32 32-32h672c17.664 0 32 14.304 32 32v480c0 0-180.576 65.984-368.32 65.984-180.096 0-367.68-65.984-367.68-65.984zM688 188c0-101.632-82.368-184-184-184s-184 82.368-184 184 82.368 184 184 184 184-82.368 184-184zM832 704h-672c-17.696 0-32-14.304-32-32v-224c0 0 185.984 64 367.68 64 186.304 0 368.32-64 368.32-64v224c0 17.696-14.336 32-32 32zM352 576h-160v64h160v-64zM591.968 576c-17.664 0-31.968 14.336-31.968 32s14.304 32 31.968 32c17.696 0 32.032-14.336 32.032-32s-14.336-32-32.032-32zM688 576c-17.696 0-32 14.336-32 32s14.304 32 32 32c17.664 0 32-14.336 32-32s-14.336-32-32-32zM782.016 576c-17.696 0-32 14.336-32 32s14.304 32 32 32c17.664 0 32-14.336 32-32s-14.368-32-32-32zM353.984 188c0-82.848 67.168-150.016 150.016-150.016s150.016 67.168 150.016 150.016c0 0.192-51.328-52.672-150.016 6.016-98.688 58.656-150.016-5.824-150.016-6.016z" />
<glyph unicode="&#xe91f;" glyph-name="mouse" d="M734.592-159.104h-159.488c-105.728 0-191.392 85.696-191.392 191.392v287.104h193.408v-63.808c0-35.232 26.56-63.776 61.824-63.776h31.872c35.264 0 63.808 28.576 63.808 63.776v63.808h193.376v-287.104c0-105.696-87.712-191.392-193.408-191.392zM734.592 383.2c0 35.232-28.576 63.808-63.808 63.808v0 189.408c0 0-41.856 1.984 61.824 1.984s195.392-67.776 195.392-191.392c0-63.456 0-86.336 0-93.696h-193.408v29.888zM641.216 660c0 61.664-29.024 96-87.136 96-61.472 0-108.512-44.288-141.088-132.832l-6.688-18.144c-38.112-103.52-93.984-155.296-167.52-155.296-29.696 0-57.408 11.328-83.168 33.92-25.76 22.624-38.624 46.912-38.624 72.928 0 12.864 6.016 19.328 18.112 19.328 8.16 0 16.576-10.272 25.248-30.784 15.744-37.888 42.048-56.832 78.848-56.832 27.872 0 50.656 8.992 68.416 27.040 17.76 18.016 37.952 52.672 60.544 103.968l14.592 32.352c42.848 95.744 100.576 143.616 173.088 143.616 83.104 0 124.64-47.424 124.64-135.264h-39.264zM702.688 367.264v-95.68c0-26.432-21.408-47.84-47.84-47.84s-47.84 21.408-47.84 47.84v95.68c0 26.432 21.408 47.872 47.84 47.872s47.84-21.44 47.84-47.872zM577.088 638.4c103.648 0 63.776-1.984 63.776-1.984v-189.408c-35.232 0-63.776-28.576-63.776-63.808v-29.92h-193.408c0 7.36 0 30.24 0 93.696 0 123.648 89.728 191.424 193.408 191.424z" />
<glyph unicode="&#xe920;" glyph-name="radio" d="M990.944 452.608c-5.728 124.608-55.616 248.928-152.576 344.096-97.12 95.296-224.032 144.288-351.2 149.76l-7.008 70.816c147.104-8.8 290.304-65.952 403.040-176.544 112.96-110.88 171.872-251.168 180.672-395.84l-72.928 7.712zM895.2 437.312l-70.208 9.696c1.152 86.464-31.168 174.016-98.4 240-65.92 64.672-152.928 96.448-239.328 96.64l-12.672 69.472c107.008-2.592 213.92-43.264 295.584-123.36 83.072-81.664 123.84-185.504 125.024-292.448zM725.824 441.472l-62.304 17.248c7.328 44.096-16.192 82.624-50.848 116.672-31.456 30.88-73.728 44.736-114.848 41.664l-24.096 69.12c65.728 4.256 132.864-18.272 183.104-67.584 49.536-48.64 72.544-113.472 68.992-177.12zM593.792 479.712c0-44.832-37.024-81.184-82.72-81.184-15.776 0-30.368 4.576-42.912 12.096l-35.552-34.944 257.28-249.792c-6.304-7.424-12.896-14.88-20.512-22.336-144.256-141.568-378.144-141.568-522.432 0-144.288 141.632-144.288 371.168 0 512.736 6.592 6.528 13.184 12 19.776 17.536l242.336-235.296 34.784 34.144c-9.696 13.28-15.52 29.44-15.52 47.040 0 44.832 37.056 81.184 82.752 81.184s82.72-36.32 82.72-81.184zM278.080-4.736c-3.040 0 84.064-187.264 84.064-187.264h-362.144l124.928 289.312c0 0 37.92-55.264 153.152-102.048z" />
<glyph unicode="&#xe921;" glyph-name="satellite" horiz-adv-x="1064" d="M0 164.384l356.384-356.384c0 0 85.088 201.952-34.656 321.696-118.432 118.432-321.728 34.688-321.728 34.688zM956 136.064l-180.992-180.992 22.624-22.624 180.992 180.992-22.624 22.624zM1046.496 90.816l-203.616 203.68c-24.992 24.928-65.568 24.928-90.496 0l-17.856-17.856-49.92 49.92 89.504 89.504c24.992 24.992 22.176 68.352-2.816 93.344l-110.304 110.304c-24.992 24.992-65.504 24.992-90.496 0l-81.376-78.528-42.88 42.88 2.912 2.88c24.992 24.992 24.992 65.536 0 90.528l-203.648 203.68c-24.992 24.992-65.504 24.992-90.528 0l-135.744-135.776c-24.992-24.992-24.992-65.536 0-90.528l203.648-203.648c24.992-24.992 65.504-24.992 90.528 0l44.512 44.512 44.096-44.48-81.888-81.888c-24.992-24.992-15.552-164.096-15.552-164.096l55.136-55.136c0 0 139.072-9.44 164.064 15.552l70.848 70.816 49.92-49.92-27.968-27.968c-24.992-24.992-24.992-65.504 0-90.496l203.68-203.616c24.992-24.992 65.504-24.992 90.496 0l135.744 135.744c24.992 25.088 24.992 65.6 0 90.592zM41.856 722.752l135.776 135.776c12.48 12.512 32.736 12.512 45.248 0l-181.024-181.024c-12.512 12.48-12.512 32.768 0 45.248zM64.48 654.88l181.024 181.024 22.624-22.624-181.024-181.024-22.624 22.624zM109.728 609.632l181.024 181.024 22.624-22.656-180.992-180.992-22.656 22.624zM155.008 564.352l180.992 181.024 22.656-22.624-181.024-181.024-22.624 22.624zM200.256 519.104l181.024 181.024 22.624-22.624-181.024-181.024-22.624 22.624zM290.752 473.856c-12.48-12.512-32.736-12.512-45.248 0l181.024 181.024c12.512-12.512 12.512-32.768 0-45.248l-135.776-135.776zM381.056 304.064l-16.96 16.992 233.92 233.92 16.992-16.96-233.952-233.952zM639.2 136.064l135.808 135.808c12.512 12.448 32.736 12.448 45.248 0l-181.056-181.056c-12.512 12.512-12.512 32.736 0 45.248zM1023.872 22.944l-135.744-135.744c-12.512-12.512-32.736-12.512-45.248 0l-135.776 135.776 180.992 180.992-22.624 22.624-181.056-180.992-22.624 22.624 181.056 181.056 180.992-181.056c12.544-12.544 12.544-32.8 0.032-45.28zM1001.248 90.816l-180.992-180.992 22.624-22.624 180.992 180.992-22.624 22.624zM910.752 181.312l-180.992-180.992 22.624-22.624 180.992 180.992-22.624 22.624z" />
<glyph unicode="&#xe922;" glyph-name="cord" d="M861.344 239.424l-429.92 429.92c-18.752 18.752-18.752 49.152 0 67.872 18.752 18.752 49.12 18.752 67.872 0l101.824-101.824 124.48 124.448c18.752 18.752 49.12 18.752 67.872 0 18.752-18.72 18.752-49.12 0-67.872l-124.448-124.448 90.496-90.496 124.448 124.448c18.752 18.752 49.152 18.752 67.904 0 18.72-18.752 18.72-49.12 0-67.872l-124.48-124.48 101.856-101.824c18.72-18.752 18.72-49.12 0-67.872-18.752-18.752-49.152-18.752-67.904 0zM669.024 69.728c-41.504-41.472-226.272-45.248-226.272-45.248l-226.272 226.272c0 0 3.776 184.768 45.248 226.272 41.504 41.472 158.4 158.368 158.4 158.368l407.296-407.296c-0.032 0.032-116.928-116.864-158.4-158.368zM216.48 205.504l181.024-181.024c12.512-12.512 12.512-32.736 0-45.248s-32.768-12.512-45.28 0l-180.992 181.024c-12.512 12.512-12.512 32.736 0 45.248s32.736 12.48 45.248 0zM306.976-20.768c0 0-15.2-15.232-33.952-33.952-18.752-18.752-49.12-18.752-67.872 0l-11.328 11.328-90.528-90.496-45.248 45.248 90.528 90.496-11.296 11.296c-18.752 18.752-18.752 49.152 0 67.904s35.808 32.032 35.808 32.032l133.888-133.856z" />
<glyph unicode="&#xe923;" glyph-name="stack" d="M287.488 542.496v96.512h608v-446.496h-96.512l1.984-96.992h-98.496v-94.496h-605.952v446.976h95.008v96.512l95.968-2.016zM862.496 608h-544v-65.504l482.496 1.984-1.984-320.992h63.488v384.512zM768 511.488h-545.504v-63.488h480v-319.488h65.504v382.976zM127.488 416.992v-384.992h544v384.992h-544z" />
<glyph unicode="&#xe924;" glyph-name="stack2" d="M915.456 472.128l-403.456 276.224-403.456-276.224 403.456-276.192 403.456 276.192zM512 134.304l-356.128 234.816-47.328-49.12 403.456-276.192 403.456 276.192-47.968 50.176-355.488-235.872zM512-17.888l-356.128 234.816-47.328-49.12 403.456-276.192 403.456 276.192-47.968 50.176-355.488-235.872z" />
<glyph unicode="&#xe925;" glyph-name="lamp" d="M562.24 252.224c-51.136 41.792-83.776 105.344-83.776 176.544 0 35.776 8.96 69.184 23.648 99.328l-35.136 35.104-213.44-213.472c39.68-31.232 35.68-61.76-10.752-91.52l285.152-285.12h139.744c17.984 0 32.576-14.592 32.576-32.576v-32.576h-152.576l-0.352-0.352-0.352 0.352h-237.376v32.544c0 17.984 14.592 32.576 32.576 32.576h139.744l-268.992 268.96c-53.152-22.784-79.392-0.768-78.272 66.88 1.216 71.968 31.712 91.168 90.848 58.784l218.528 218.528-21.632 21.6c-12.704 12.672-12.704 33.312 0 46.016l69.056 69.056c12.704 12.704 33.344 12.704 46.048 0l83.2-83.264c26.496 10.784 55.328 16.96 85.696 16.96 74.944 0 141.504-32.16 183.008-88.064 1.408-0.352-325.984-316.8-327.168-316.288zM814.176 455.872c0 0 54.944-69.152 0-124.096s-123.424 0.672-123.424 0.672l123.424 123.424z" />
<glyph unicode="&#xe926;" glyph-name="streetlight" d="M672.992 192.608v128l94.016 94.016h-94.016v129.984l94.016 94.016h-94.016v53.984c0 0-106.144 44.8-179.232 44.8-70.912 0-172.768-44.8-172.768-44.8v-54.016h-96l96-96v-129.984l-96 1.984 96-96v-128h-97.984l97.984-97.984v-158.016h126.016l1.984-64 96 1.984v62.016h128v161.984l96 96h-96zM498.304-0.704c-52.992 0-96 42.976-96 96 0 52.992 43.008 95.968 96 95.968 53.024 0 96-42.976 96-95.968 0-53.056-42.976-96-96-96zM498.304 221.28c-52.992 0-96 42.976-96 96 0 52.992 43.008 96 96 96 53.024 0 96-43.008 96-96 0-53.024-42.976-96-96-96zM498.304 447.264c-52.992 0-96 43.008-96 96.032 0 52.992 43.008 96 96 96 53.024 0 96-43.008 96-96 0-53.056-42.976-96.032-96-96.032z" />
<glyph unicode="&#xe927;" glyph-name="bomb" horiz-adv-x="1168" d="M1063.296 578.304l105.088-14.848-93.44-49.472 67.744-61.888-98.080 12.384 60.704-126.24-121.44 91.584-100.448-121.28 46.72 150.944-147.168-79.2 102.752 111.36-7.040 27.392c-27.744-13.824-67.040-27.936-108.128-26.304-54.496 0-122.176 38.016-203.040 105.984 0 0-91.552 96.832-168.512 96.832-79.168 0-71.424-119.104-71.328-120.288h89.664v-81.024c113.984-43.904 191.008-154.176 191.008-283.68 0-168-136.192-304.192-304.192-304.192s-304.16 136.256-304.16 304.256c0 129.472 79.008 239.776 192.992 283.68v81.024h80.128c-0.096 0.608-9.216 87.808 36.8 136.192 24.544 25.792 54.528 38.688 90.016 38.688 106.784 0 202.624-112.384 202.624-112.384 70.24-60.288 127.52-90.4 171.84-90.4 17.984 0 54.592 11.328 73.408 17.568l-57.824 45.504 100.448-7.392-77.056 118.784 126.112-89.088 14.016 84.16 23.328-76.736 93.44 111.36-21.024-123.744 107.424 24.736-93.376-74.272z" />
<glyph unicode="&#xe928;" glyph-name="archive2" d="M418.24 665.536l-185.472 49.696c-17.056 4.576-34.592-5.568-39.168-22.624l-190.496-710.912c-4.576-17.088 5.568-34.624 22.656-39.232l185.44-49.696c17.056-4.576 34.624 5.568 39.2 22.624l190.496 710.944c4.544 17.056-5.568 34.624-22.656 39.2zM248.96 33.824c-13.728-51.232-66.336-81.6-117.568-67.872s-81.6 66.336-67.872 117.568 66.336 81.632 117.568 67.872c51.232-13.728 81.6-66.368 67.872-117.568zM285.728 170.976l-185.44 49.696 99.36 370.912 185.472-49.728-99.392-370.88zM606.016 96c-26.528 0-48-21.504-48-48s21.472-48 48-48c26.496 0 48 21.504 48 48s-21.504 48-48 48zM345.952 519.264l-123.68 33.12-8.256-30.912 123.648-33.12 8.288 30.912zM321.056 426.528l8.32 30.912-123.648 33.12-8.288-30.912 123.616-33.12zM168.16 103.104c-25.6 6.88-51.936-8.352-58.784-33.952-6.88-25.632 8.32-51.936 33.952-58.784 25.6-6.88 51.936 8.32 58.784 33.952 6.848 25.6-8.352 51.904-33.952 58.784zM958.016 544h-128v-32h128v32zM958.016 416h-128v-32h128v32zM958.016 480h-128v-32h128v32zM894.016 96c-26.528 0-48-21.504-48-48s21.472-48 48-48c26.496 0 48 21.504 48 48s-21.504 48-48 48zM990.016 704h-192c-17.696 0-32-14.304-32-32v-736c0-17.664 14.304-32 32-32h192c17.664 0 32 14.336 32 32v736c0 17.696-14.368 32-32 32zM894.016-48c-53.024 0-96 43.008-96 96 0 53.024 42.976 96 96 96 52.992 0 96-42.976 96-96 0-52.992-43.008-96-96-96zM990.016 192h-192v384h192v-384zM670.016 544h-128v-32h128v32zM670.016 416h-128v-32h128v32zM702.016 704h-192c-17.696 0-32-14.304-32-32v-736c0-17.664 14.304-32 32-32h192c17.664 0 32 14.336 32 32v736c0 17.696-14.368 32-32 32zM606.016-46.016c-53.024 0-96 43.008-96 96 0 53.024 42.976 96 96 96 52.992 0 96-42.976 96-96 0-52.992-43.008-96-96-96zM702.016 192h-192v384h192v-384zM670.016 480h-128v-32h128v32zM180.864 397.856l123.616-33.12 8.32 30.912-123.648 33.12-8.288-30.912z" />
<glyph unicode="&#xe929;" glyph-name="megaphone" d="M912-32c-26.496 0-48 21.504-48 48v576c0 26.496 21.504 48 48 48s48-21.504 48-48v-576c0-26.496-21.504-48-48-48zM672 32c0-35.328-28.672-64-64-64h-288c-35.328 0-64 28.672-64 64v126.688l-127.712 28.416v231.328l704.768 155.296v-543.488l-161.056 35.808v-34.048zM640 73.184l-352 78.368v-119.552c0-17.664 14.336-32 32-32h288c17.696 0 32 14.336 32 32v41.184zM64 160c-17.664 0-32 14.336-32 32v224c0 17.696 14.336 32 32 32s32-14.304 32-32v-224c0-17.664-14.336-32-32-32z" />
<glyph unicode="&#xe92a;" glyph-name="injection" d="M773.12 537.376c12.096-12.064 12.096-31.648 0-43.744-12.096-12.064-21.92-21.888-21.92-21.888l21.92-21.888c24.16-24.16 24.16-63.328 0-87.52l-328.16-328.096c-24.192-24.192-63.36-24.192-87.52 0l-21.888 21.888-87.488-87.552 43.744-43.744c12.096-12.064 12.096-31.616 0-43.744-12.096-12.064-31.68-12.064-43.744 0l-175.040 175.072c-12.064 12.064-12.064 31.616 0 43.744 12.096 12.064 31.68 12.064 43.744 0l43.744-43.744 87.52 87.488-21.888 21.888c-24.192 24.128-24.192 63.328 0 87.488l328.192 328.128c24.192 24.192 63.328 24.192 87.488 0l21.888-21.888c0 0 9.824 9.824 21.888 21.888 12.096 12.096 31.68 12.096 43.744 0l10.944-10.944 175.040 175.040v-43.744l-153.152-153.152 10.944-10.976zM619.968 559.264c-12.064 12.096-31.648 12.096-43.744 0l-65.632-65.632 43.744-43.744-21.888-21.888-43.744 43.744-65.632-65.632 43.744-43.776-21.888-21.888-43.776 43.776-21.888-21.888 87.52-87.488-21.888-21.888-87.52 87.488-65.568-65.568 87.488-87.488-21.888-21.888-87.488 87.488-21.888-21.888c-12.096-12.064-12.096-31.68 0-43.744l131.264-131.264c12.096-12.128 31.68-12.128 43.776 0l328.128 328.128c12.128 12.064 12.128 31.648 0 43.744l-131.232 131.296zM532.48 515.52l21.888 21.888 87.488-87.488-21.888-21.888-87.488 87.488zM532.48 340.512l-87.488 87.52 21.888 21.888 87.488-87.52-21.888-21.888zM313.696 296.736l21.888 21.888 43.744-43.744-21.888-21.888-43.744 43.744zM958.144 531.648c0-23.2-18.816-41.984-41.984-41.984-23.232 0-42.016 18.816-42.016 41.984 0 23.232 42.016 86.656 42.016 86.656s41.984-63.456 41.984-86.656z" />
<glyph unicode="&#xe92b;" glyph-name="thermometer" d="M606.688 258.784v29.344h98.016v-29.344h-98.016zM606.688 352.8h98.016v-31.328h-98.016v31.328zM606.688 415.52h98.016v-31.36h-98.016v31.36zM606.688 480.224h98.016v-31.328l-98.016 1.984v29.344zM606.688 546.912h98.016v-33.344h-98.016v33.344zM606.688 609.6h98.016v-31.36h-98.016v31.36zM663.456 59.104c0-103.872-84.224-188.096-188.096-188.096s-188.096 84.224-188.096 188.096c0 71.232 37.6 133.152 95.968 165.088v418.784c0 51.936 44.096 94.016 96.032 94.016s94.048-42.080 94.048-94.016v-423.52c54.016-33.088 90.144-92.416 90.144-160.352zM541.984 200.48v442.496c0 34.624-28.064 62.688-62.688 62.688s-62.688-28.064-62.688-62.688v-438.752c-57.408-23.296-97.984-79.36-97.984-145.12 0-86.56 70.176-156.736 156.736-156.736s156.704 70.176 156.704 156.736c0.032 62.656-36.96 116.256-90.080 141.376zM475.36-66.304c-69.28 0-125.408 56.16-125.408 125.408 0 59.808 41.952 109.632 97.984 122.176v298.944h62.72v-301.376c51.936-15.328 90.112-62.848 90.112-119.744 0-69.248-56.128-125.408-125.408-125.408z" />
<glyph unicode="&#xe92c;" glyph-name="lamp2" d="M567.904 383.456c-40-17.984-128.704 26.080-128.704 26.080-103.936 62.304 39.040-194.336 39.040-194.336s2.976-80.096 20.96-90.080c149.984 210.016 108.704 276.352 68.704 258.336zM513.92 184.32c-12.128 0-63.104 152.928-57.088 184.928 40.032-4 77.088-19.104 99.104-7.104 61.984 28.096-28.032-177.824-42.016-177.824zM638.464 65.696c3.68 233.76 129.472 323.712 129.472 462.912 0 118.784-81.28 270.4-251.84 270.4-170.528 0-260.032-145.056-260.032-271.488 0-141.952 127.776-231.168 127.776-463.296h129.376c0 0 121.536 1.472 125.248 1.472zM409.888 95.36c0 216.672-123.776 299.936-123.776 432.416 0 118.016 80.32 241.792 229.536 241.792s222.336-129.92 222.336-240.768c0-129.92-122.048-215.744-125.312-433.92-3.264 0-99.552 0.512-99.552 0.512h-103.232zM624.16 31.552h-224c-8.832 0-16-7.168-16-16s7.168-16 16-16h224c8.8 0 16 7.168 16 16s-7.2 16-16 16zM624.16-32.448h-224c-8.832 0-16-7.168-16-16s7.168-16 16-16h224c8.8 0 16 7.168 16 16s-7.2 16-16 16zM415.904-97.376c0 0 0-10.688 0-28.8s14.208-32.8 31.744-32.8h128.992c17.568 0 31.744 14.688 31.744 32.8s-1.984 28.8-1.984 28.8h-190.496z" />
<glyph unicode="&#xe92d;" glyph-name="cube2" d="M494.464 735.808l-427.584-184.224 428-182.784 432.416 183.2-432.832 183.808zM512 345.792v-441.6l415.84 197.408v420.832l-415.84-176.64zM64.16 101.6l417.248-197.408v441.6l-417.248 176.64v-420.832z" />
<glyph unicode="&#xe92e;" glyph-name="box" d="M55.52 261.376l385.728-194.592 68.864 194.592-385.696 184.256-68.896-184.256zM518.752 261.376l65.44-192.864 399.488 194.592-77.504 182.528-387.424-184.256zM-7.904 601.216l132.608-154.976 385.696 196.288-125.696 160.16-392.608-201.472zM1031.904 597.792l-384.032 204.896-130.88-160.16 389.184-196.288 125.728 151.552zM101.6 212.704l-1.312-186.848 406.816-188.576v351.36l-58.112-151.552-347.392 175.616zM521.312 188.64v-351.328l405.568 188.576v185.568l-351.68-174.72-53.888 151.904z" />
<glyph unicode="&#xe92f;" glyph-name="box2" d="M64.16 101.6l417.248-197.408v441.6l-417.248 176.64v-420.832zM192.192 358.688l160.832-74.784-0.928-58.944-160.8 74.752 0.896 58.976zM512 345.792v-441.6l415.808 197.408v420.832l-415.808-176.64zM494.496 735.808l-427.616-184.224 428-182.784 432.448 183.2-432.832 183.808z" />
<glyph unicode="&#xe930;" glyph-name="grid" d="M256 352h224v224h-224v-224zM544 576v-224h224v224h-224zM544 64h224v224h-224v-224zM256 64h224v224h-224v-224z" />
<glyph unicode="&#xe931;" glyph-name="ruler" d="M736.736-96.192v64.928h-32.416v-64.928h-32.448v64.928h-32.512v-64.928h-30.432v97.376h-32.448v-97.376h-32.448v64.928h-32.448v-64.928h-30.432v64.928h-32.448v-64.928h-32.48v97.376h-32.448v-97.376h-32.448v64.928h-30.368v-64.928h-32.448v64.928h-32.48v-64.928h-32.416v97.376h-30.432v-97.376h-97.344v800.352l800.352-800.352h-159.456zM223.616 397.312v-363.68h363.648l-363.648 363.68z" />
<glyph unicode="&#xe932;" glyph-name="tools" d="M889.056 578.048c30.688-74.016 16.064-162.368-44.128-222.56-66.272-66.272-166.432-76.64-244.288-32.704l-56.288-61.472 40.16-40.32 24 24c12.256 12.288 32.16 12.288 44.416 0l194.624-196.608c12.288-12.256 12.288-32.16 0-44.416l-88.832-88.832c-12.256-12.288-32.16-12.288-44.416 0l-194.624 196.608c-12.288 12.256-12.288 32.16 0 44.416l21.92 21.92-38.272 38.368-269.152-294.048c-24.544-24.544-64.32-24.544-88.832 0l-22.208 22.208c-24.544 24.544-24.544 64.32 0 88.832l306.624 256.8-203.648 204.192-64.32 0.032-74.432 119.68 59.904 60 122.4-74.912 0.8-62.976 206.016-206.816 59.936 50.176c-58.592 79.872-52.48 192.384 19.712 264.576 59.904 59.904 147.776 74.784 221.6 44.672l-131.968-130.144 111.072-111.072 132.224 130.4zM196.8 2.112c-12.256 12.256-32.128 12.256-44.416 0-12.288-12.288-12.288-32.16 0-44.448 12.288-12.256 32.16-12.256 44.416 0 12.288 12.32 12.288 32.192 0 44.448z" />
<glyph unicode="&#xe933;" glyph-name="screwdriver" d="M876.576 746.752l-116.672-70.976-0.832-64.16-257.536-256.896-35.296 35.296c-12.512 12.512-32.768 12.512-45.28 0-12.48-12.48-24.032-21.184-24.032-21.184l13.12-13.12c-0.128 0.128-0.288 0.256-0.416 0.384-63.616-63.584-104.64-81.984-104.64-81.984l-199.616-202.272c-12.512-12.544-12.512-32.704 0-45.248l113.152-113.152c12.48-12.512 32.736-12.512 45.248 0l199.584 202.272c0 0 18.368 40.96 82.048 104.672l11.328-11.328c0 0 10.080 10.112 22.624 22.624 12.512 12.512 12.512 32.736 0 45.248l-34.304 34.304 256.576 257.824 65.504 0.032 70.496 116.608-61.056 61.056zM127.328 51.136l203.136 203.136 22.624-22.592-203.136-203.168-22.624 22.624zM172.576 4.448l203.136 203.2 22.624-22.688-203.136-203.136-22.624 22.624zM240.448-63.424l-22.624 22.624 203.136 203.168 22.656-22.624-203.168-203.168z" />
<glyph unicode="&#xe934;" glyph-name="paint" d="M832 416h-320v-64h-64v96h384v192h-32v-96c0-17.664-14.336-32-32-32h-576c-17.696 0-32 14.336-32 32v128c0 17.696 14.304 32 32 32h576c17.664 0 32-14.304 32-32h64v-256h-32zM736 672h-512v-32h512v32zM544 0c0-35.328-28.672-64-64-64s-64 28.672-64 64v320h128v-320zM480 45.344c-17.696 0-32-14.336-32-32 0-17.696 14.304-32 32-32 17.664 0 32 14.304 32 32 0 17.664-14.336 32-32 32z" />
<glyph unicode="&#xe935;" glyph-name="hammer" d="M393.984 511.52l-108.128 80.448 108.128 77.6h340.992v-158.016h-340.992zM513.024 735.904h93.696v-31.904h-93.696v31.904zM606.176 476.832l35.328-563.328c0-22.88-18.496-41.376-41.376-41.376h-80.736c-22.88 0-41.376 18.496-41.376 41.376l33.44 563.328h94.72zM560.864-83.264c17.6 0 31.872 14.24 31.872 31.872s-14.272 31.872-31.872 31.872c-17.632 0-31.904-14.24-31.904-31.872s14.304-31.872 31.904-31.872z" />
<glyph unicode="&#xe936;" glyph-name="brush" d="M881.76 562.56c-43.36-52.704-162.24-198.24-256.672-313.92l-119.904 121.728c108.448 96.512 242.688 215.808 291.2 258.528 86.304 76.064 161.984 121.312 178.432 102.816 10.304-10.24-17.056-76.672-93.056-169.152zM604.128 223.040c-36.576-44.768-68.064-83.328-87.328-106.976l-141.952 138.336c23.008 20.48 61.312 54.56 105.728 94.048l123.552-125.408zM495.648 90.144v0.384c-82.4-316.16-448.576-134.4-448.576-134.4s153.632-19.36 153.632 123.936c0 138.912 141.184 151.456 149.856 152.096l145.376-141.664c0-0.032-0.288-0.352-0.288-0.352z" />
<glyph unicode="&#xe937;" glyph-name="profile" d="M896 544h-62.656v94.016l-129.344 1.984 0.672-96h-388.672l2.656 96-126.656-1.984v-96l-64 1.984c-35.328 0-64-28.672-64-64v-448c0-35.328 28.672-64 64-64h768c35.328 0 64 28.672 64 64v448c0 35.328-28.672 64-64 64zM736 608h64v-128h-64v128zM320 390.016c38.656 0 70.016-41.184 70.016-92s-31.36-92-70.016-92-70.016 41.184-70.016 92 31.36 92 70.016 92zM224 608h64v-128h-64v128zM181.344 97.664c0 0 7.584 60.864 24.832 72.352 17.216 11.488 66.88 19.136 66.88 19.136s32.192-34.4 45.888-34.4c13.664 0 45.856 34.4 45.856 34.4s49.664-7.616 66.912-19.136c20.256-13.504 25.312-72.352 25.312-72.352h-275.68zM832 128h-288v32h288v-32zM832 192h-288v32h288v-32zM832 256h-288v32h288v-32zM832 320h-288v32h288v-32z" />
<glyph unicode="&#xe938;" glyph-name="shuffle" d="M735.008 448v-94.016l225.984 145.984-224 140-1.984-96h-188l-230.016-349.984h-252v-97.984h300l224 352h146.016zM384.992 345.984l49.984 88-69.984 110.016h-300l-1.984-96h254.016l67.968-102.016zM735.008 192h-145.984l-64 102.016-52.032-86.016 73.984-112h188l1.984-96 224 140-225.984 145.984v-93.984z" />
<glyph unicode="&#xe939;" glyph-name="square" d="M896 64v-128h-128v32h-512v-32h-128v128h32v512h-32v128h128v-32h512v32h128v-128h-32v-512h32zM160-32h64v64h-64v-64zM224 672h-64v-64h64v64zM768 608h-512v-32h-32v-512h32v-32h512v32h32v512h-32v32zM864 672h-64v-64h64v64zM800 32v-64h64v64h-64z" />
<glyph unicode="&#xe93a;" glyph-name="dollar" horiz-adv-x="1216" d="M1152.064 95.68l1.824 546.848-993.6-0.608-0.032 62.72h1055.744v-608.992l-63.936 0.032zM1119.84-0.544l-63.904 0.064 1.824 546.848-993.6-0.64-0.032 62.72h1055.744v-608.992zM1025.696-64.64h-1025.696v576.96h1025.696v-576.96zM961.568 450.208h-897.472v-450.752h897.44v450.752zM865.44 47.52c0-5.664 1.408-10.944 3.232-16h-355.84c88.512 0 160.288 86.080 160.288 192.32s-71.776 192.32-160.288 192.32h355.808c-1.824-5.056-3.232-10.336-3.232-16.032 0-26.56 21.504-48.064 48.064-48.064 5.696 0 10.976 1.408 16.032 3.232v-262.88c-5.056 1.792-10.336 3.232-16.032 3.232-26.528-0.032-48.032-21.568-48.032-48.128zM801.312 290.592c-26.56 0-48.064-28.672-48.064-64.096s21.504-64.096 48.064-64.096 48.064 28.672 48.064 64.096-21.504 64.096-48.064 64.096zM579.936 339.392c0.48-0.928 0.864-2.176 1.184-3.712 0.352-1.536 0.576-3.488 0.672-5.824 0.16-2.336 0.224-5.248 0.224-8.736 0-3.872-0.096-7.168-0.288-9.824-0.224-2.688-0.576-4.896-0.992-6.624-0.512-1.76-1.152-3.040-1.984-3.808-0.864-0.8-2.048-1.216-3.52-1.216s-3.776 0.928-7.008 2.784c-3.232 1.888-7.168 3.872-11.808 6.048s-10.080 4.192-16.224 5.984-12.864 2.688-20.224 2.688c-5.76 0-10.752-0.672-15.008-2.080-4.288-1.408-7.872-3.328-10.72-5.792-2.88-2.464-5.024-5.44-6.4-8.864-1.408-3.456-2.112-7.136-2.112-10.976 0-5.76 1.568-10.72 4.704-14.944 3.136-4.192 7.328-7.936 12.64-11.2 5.28-3.296 11.264-6.336 17.92-9.216s13.472-5.92 20.416-9.088c6.944-3.232 13.76-6.848 20.448-10.944 6.688-4.064 12.64-8.928 17.824-14.592 5.216-5.696 9.44-12.352 12.64-20.032s4.8-16.704 4.8-27.136c0-13.6-2.56-25.568-7.616-35.808-5.056-10.272-11.936-18.88-20.64-25.76s-18.816-12.032-30.432-15.488c-1.472-0.448-3.072-0.64-4.576-0.992v-35.008h-31.52v30.88c-0.416 0-0.768-0.096-1.184-0.096-8.928 0-17.248 0.736-24.928 2.176-7.68 1.472-14.464 3.232-20.32 5.248-5.888 2.048-10.784 4.224-14.72 6.464-3.968 2.24-6.784 4.224-8.512 5.952s-2.976 4.224-3.712 7.488-1.12 8-1.12 14.144c0 4.128 0.128 7.616 0.416 10.4 0.256 2.816 0.704 5.088 1.312 6.848 0.608 1.728 1.408 2.976 2.4 3.712 0.992 0.704 2.176 1.088 3.488 1.088 1.888 0 4.512-1.088 7.936-3.328 3.392-2.176 7.776-4.64 13.12-7.296s11.712-5.088 19.136-7.296c7.392-2.208 16-3.328 25.728-3.328 6.4 0 12.16 0.768 17.216 2.304 5.088 1.536 9.376 3.712 12.928 6.496 3.52 2.816 6.208 6.304 8.096 10.432 1.888 4.16 2.816 8.768 2.816 13.856 0 5.888-1.632 10.944-4.8 15.136-3.2 4.224-7.36 7.936-12.512 11.232-5.152 3.264-10.976 6.336-17.504 9.184-6.56 2.88-13.28 5.92-20.224 9.12s-13.696 6.848-20.224 10.912c-6.528 4.064-12.384 8.928-17.504 14.624-5.12 5.664-9.312 12.384-12.512 20.096-3.2 7.744-4.8 17.024-4.8 27.84 0 12.416 2.304 23.328 6.912 32.704 4.608 9.408 10.816 17.216 18.624 23.424 7.808 6.176 17.024 10.848 27.616 13.92 5.44 1.568 11.072 2.72 16.864 3.488v33.12h31.52v-33.12c1.248-0.16 2.496-0.096 3.744-0.288 6.144-0.928 11.904-2.176 17.248-3.776 5.312-1.6 10.048-3.36 14.176-5.376 4.16-1.984 6.88-3.616 8.256-4.96 1.248-1.184 2.144-2.304 2.624-3.264zM352.576 223.84c0-106.208 71.744-192.32 160.256-192.32h-355.808c1.792 5.056 3.232 10.336 3.232 16 0 26.56-21.536 48.096-48.064 48.096-5.696 0-10.976-1.44-16.032-3.232v262.88c5.056-1.824 10.336-3.232 16.032-3.232 26.56 0 48.064 21.504 48.064 48.064 0 5.696-1.44 10.976-3.232 16.032h355.808c-88.512 0.032-160.256-86.080-160.256-192.288zM224.352 290.592c-26.56 0-48.064-28.672-48.064-64.096s21.536-64.096 48.064-64.096c26.56 0 48.064 28.672 48.064 64.096s-21.504 64.096-48.064 64.096z" />
<glyph unicode="&#xe93b;" glyph-name="coin-dollar" d="M480 768c-265.096 0-480-214.904-480-480 0-265.098 214.904-480 480-480 265.098 0 480 214.902 480 480 0 265.096-214.902 480-480 480zM480-96c-212.078 0-384 171.922-384 384s171.922 384 384 384c212.078 0 384-171.922 384-384s-171.922-384-384-384zM512 320v128h128v64h-128v64h-64v-64h-128v-256h128v-128h-128v-64h128v-64h64v64h128.002l-0.002 256h-128zM448 320h-64v128h64v-128zM576.002 128h-64.002v128h64.002v-128z" />
<glyph unicode="&#xe93c;" glyph-name="coin-euro" d="M480 768c-265.096 0-480-214.904-480-480s214.904-480 480-480c265.098 0 480 214.902 480 480s-214.902 480-480 480zM480-96c-212.078 0-384 171.922-384 384s171.922 384 384 384c212.076 0 384-171.922 384-384s-171.924-384-384-384zM670.824 187.66c-15.27 8.884-34.862 3.708-43.75-11.57-17.256-29.662-49.088-48.090-83.074-48.090h-128c-41.716 0-77.286 26.754-90.496 64h154.496c17.672 0 32 14.326 32 32s-14.328 32-32 32h-160v64h160c17.672 0 32 14.328 32 32s-14.328 32-32 32h-154.496c13.21 37.246 48.78 64 90.496 64h128c33.986 0 65.818-18.426 83.074-48.090 8.888-15.276 28.478-20.456 43.752-11.568 15.276 8.888 20.456 28.476 11.568 43.752-28.672 49.288-81.702 79.906-138.394 79.906h-128c-77.268 0-141.914-55.056-156.78-128h-35.22c-17.672 0-32-14.328-32-32s14.328-32 32-32h32v-64h-32c-17.672 0-32-14.326-32-32s14.328-32 32-32h35.22c14.866-72.944 79.512-128 156.78-128h128c56.692 0 109.72 30.62 138.394 79.91 8.888 15.276 3.708 34.864-11.57 43.75z" />
<glyph unicode="&#xe93d;" glyph-name="coin-pound" d="M480 768c-265.096 0-480-214.904-480-480s214.904-480 480-480c265.098 0 480 214.902 480 480s-214.902 480-480 480zM480-96c-212.078 0-384 171.922-384 384s171.922 384 384 384c212.074 0 384-171.922 384-384s-171.926-384-384-384zM608 128h-224v128h96c17.672 0 32 14.326 32 32s-14.328 32-32 32h-96v32c0 52.934 43.066 96 96 96 34.17 0 66.042-18.404 83.18-48.030 8.85-15.298 28.426-20.526 43.722-11.676 15.296 8.848 20.526 28.424 11.676 43.722-28.538 49.336-81.638 79.984-138.578 79.984-88.224 0-160-71.776-160-160v-32h-32c-17.672 0-32-14.326-32-32s14.328-32 32-32h32v-192h288c17.674 0 32 14.326 32 32s-14.326 32-32 32z" />
<glyph unicode="&#xe93e;" glyph-name="coin-yen" d="M480 768c-265.096 0-480-214.904-480-480s214.904-480 480-480c265.098 0 480 214.902 480 480s-214.902 480-480 480zM480-96c-212.078 0-384 171.922-384 384s171.922 384 384 384c212.076 0 384-171.922 384-384s-171.924-384-384-384zM608 256c17.674 0 32 14.326 32 32s-14.326 32-32 32h-68.208l94.832 142.25c9.804 14.704 5.83 34.572-8.876 44.376-14.704 9.802-34.572 5.83-44.376-8.876l-101.372-152.062-101.374 152.062c-9.804 14.706-29.672 18.68-44.376 8.876-14.706-9.804-18.678-29.672-8.876-44.376l94.834-142.25h-68.208c-17.672 0-32-14.326-32-32s14.328-32 32-32h96v-64h-96c-17.672 0-32-14.326-32-32s14.328-32 32-32h96v-96c0-17.674 14.328-32 32-32s32 14.326 32 32v96h96c17.674 0 32 14.326 32 32s-14.326 32-32 32h-96v64h96z" />
<glyph unicode="&#xe93f;" glyph-name="safe" d="M864-96l-63.968 1.984v-65.984h-96v64h-382.016l-1.984-64h-96v62.016l-64.032 1.984c-35.328 0-64 28.672-64 64v768c0 35.328 28.672 64 64 64h704c35.328 0 64-28.672 64-64v-768c0-35.328-28.672-64-64-64zM832 704h-640v-126.656l-31.328 0.64v-98.656h31.328v-253.344h-32v-97.984h32v-128h640v704zM800 32h-576v96h32v97.984h-32v254.016h32l0.672 97.344h-32.672v94.656h576v-640zM465.984 494.016c-70.688 0-128-57.312-128-128s57.312-128 128-128c70.72 0 128 57.312 128 128s-57.28 128-128 128zM752 463.424c0 17.696-14.304 32-32 32-17.664 0-32-14.304-32-32 0-11.712 6.624-21.536 16-27.104v-169.248c-9.376-5.568-16-15.36-16-27.104 0-17.664 14.336-32 32-32 17.696 0 32 14.336 32 32 0 12.608-7.424 23.232-17.984 28.448v166.56c10.56 5.248 17.984 15.872 17.984 28.448zM464 312c-26.496 0-48 21.504-48 48 0 26.528 21.504 48 48 48 26.528 0 48-21.472 48-48 0-26.496-21.472-48-48-48z" />
<glyph unicode="&#xe940;" glyph-name="music" d="M862.336 718.784c-171.584-3.392-370.368-33.12-541.984-89.216-0.096 1.12 0.64-509.696 0.64-509.696-30.976 7.008-65.984 2.944-102.752-13.824-68.224-31.008-105.44-93.696-83.104-140 22.336-46.368 95.744-58.816 163.968-27.744 62.368 33.44 82.432 63.68 84.48 107.424l1.536 442.624c135.232 39.776 278.24 63.36 413.536 70.656v-395.712c-31.328 7.68-72.832 3.808-110.432-13.248-68.224-31.072-105.44-93.76-83.104-140.064 22.336-46.368 95.744-58.752 164-27.744 48.512 22.048 87.328 60.128 94.176 96.928 0.032 0.032-1.632 640.48-0.96 639.616z" />
<glyph unicode="&#xe941;" glyph-name="presentation" d="M864.064 671.84h-736.16c-17.632 0-31.904 14.304-31.904 32 0 17.664 14.272 31.968 31.904 31.968h337.152v32c0 17.664 14.304 31.968 31.936 31.968s31.904-14.304 31.904-31.968v-32h335.168c17.664 0 31.936-14.336 31.936-31.968 0-17.696-14.272-32-31.936-32zM864.064 160.064h-736.16v479.808h736.16v-479.808zM224 414.976c0-70.816 57.312-128.224 128-128.224s128 57.408 128 128.224h-128v128.288c-70.688 0-128-57.44-128-128.288zM576.768 543.904h-31.904v-31.968h31.904v31.968zM576.768 479.936h-31.904v-31.968h31.904v31.968zM576.768 415.968h-31.904v-31.968h31.904v31.968zM576.768 352h-31.904v-32h31.904v32zM576.768 288h-31.904v-32h31.904v32zM768.32 543.904h-159.584v-31.968h159.584v31.968zM768.32 479.936h-159.584v-31.968h159.584v31.968zM768.32 415.968h-159.584v-31.968h159.584v31.968zM768.32 352h-159.584v-32h159.584v32zM768.32 288h-159.584v-32h159.584v32zM408.992 0.128h72.032v159.936h31.936v-159.936h70.912l-70.912 159.936h63.84l127.648-287.872h-63.808l-42.56 96h-85.12v-159.936h-31.936v159.936h-86.432l-43.232-96h-63.84l129.664 287.872h63.84l-72.032-159.936zM512.96 160.064v0 0 0zM481.024 160.064v0 0 0z" />
<glyph unicode="&#xe942;" glyph-name="droplet" d="M864.626 358.838c-65.754 183.44-205.11 348.15-352.626 473.162-147.516-125.012-286.87-289.722-352.626-473.162-40.664-113.436-44.682-236.562 12.584-345.4 65.846-125.14 198.632-205.438 340.042-205.438s274.196 80.298 340.040 205.44c57.27 108.838 53.25 231.962 12.586 345.398zM738.764 73.044c-43.802-83.252-132.812-137.044-226.764-137.044-55.12 0-108.524 18.536-152.112 50.652 13.242-1.724 26.632-2.652 40.112-2.652 117.426 0 228.668 67.214 283.402 171.242 44.878 85.292 40.978 173.848 23.882 244.338 14.558-28.15 26.906-56.198 36.848-83.932 22.606-63.062 40.024-156.34-5.368-242.604z" />
<glyph unicode="&#xe943;" glyph-name="microphone2" d="M584.032 419.008c19.744 67.168 11.392 140.8-25.024 202.464 0.8-1.12-348.128-352.864-350.624-350.656 60.64-35.808 134.272-45.888 200.544-27.392-0.48 1.696 173.696 175.84 175.104 175.584zM521.792 677.568c-47.008 46.336-114.272 77.76-185.408 77.76-143.776 0-260.352-116.864-260.352-260.992 0-70.336 32-138.432 77.12-185.376 0.096 0 366.432 365.6 368.64 368.608zM889.984-14.912c0 0 8.512 73.536-12.704 94.752-1.408 1.408-244.672 298.4-244.672 298.4l-181.024-181.024 296.992-246.048c19.808-22.624 96.16-11.328 96.16-11.328l60.8-55.168 42.432 42.432-57.984 57.984z" />
<glyph unicode="&#xe944;" glyph-name="cone" d="M864.736-95.68h-705.504l0.48 60.64 81.92 70.624c0 0 147.488-48.64 270.016-48.64 120.736 0 272.736 48.64 272.736 48.64l80.384-69.76v-61.504zM261.856 60.192l51.2 162.432h397.216l51.2-162.432c0 0-154.688-46.112-248.64-46.112-91.68-0.032-250.976 46.112-250.976 46.112zM343.36 318.816l51.168 162.4h234.304l51.136-162.4h-336.608zM474.688 735.712h73.92l49.888-158.24h-173.664l49.856 158.24z" />
<glyph unicode="&#xe945;" glyph-name="keyboard" d="M894.944-63.488h-765.92c-35.264 0-63.808 28.608-63.808 63.84v351.008c0 35.296 28.576 63.84 63.808 63.84l33.76 1.792c0 52.128 15.872 84 47.616 119.488s71.104 53.28 118.144 53.28c22.304 0 47.040-3.776 74.144-11.328 0 0 58.944-19.584 99.872-19.584 62.432 0 105.056 27.36 127.68 82.112 10.624 26.336 21.44 39.52 32.448 39.52 15.744 0 23.68-7.36 23.68-22.048 0-26.016-14.048-54.784-42.176-86.272-37.76-42.784-84.192-64.192-139.392-64.192-42.848 0-116.288 20.096-116.288 20.096-29.824 7.232-51.104 10.816-63.776 10.816-30.496 0-56.672-13.024-78.432-39.136s-32.672-47.2-32.672-83.2l681.312-1.344c35.264 0 63.872-28.576 63.872-63.84v-351.040c0-35.232-28.64-63.808-63.872-63.808zM926.88 351.36c0 17.664-14.304 31.936-31.936 31.936h-765.92c-17.632 0-31.904-14.272-31.904-31.936v-351.040c0-17.632 14.272-31.936 31.904-31.936h765.92c17.632 0 31.936 14.304 31.936 31.936v351.040zM799.072 190.816h-62.816v-61.824h-63.808v61.824h-63.872v-61.824h-65.824v61.824h-61.824v-61.824h-63.84v61.824h-63.808v-61.824h-63.872v61.824h-64.8v-61.824h-63.808v62.816h64.8v63.84h-64.8v62.816h63.808v-61.824h64.8v61.824h63.84v-61.824h63.808v61.824h63.84v-61.824h61.824v61.824h65.824v-61.824h63.872v61.824h63.808v-61.824h62.816v61.824h63.808v-62.816h-62.816v-63.84h62.816v-62.816h-63.808v61.824zM353.28 255.648h-64.832v-63.84h64.8v63.84zM479.936 255.648h-63.84v-63.84h63.84v63.84zM607.552 255.648h-63.808v-63.84h63.808v63.84zM735.264 255.648h-63.904v-63.84h63.872v63.84zM738.24 32.256h-450.784v62.848h450.784v-62.848z" />
<glyph unicode="&#xe946;" glyph-name="radio2" horiz-adv-x="1056" d="M992-96.128h-928c-35.328 0-64 28.608-64 63.84v542.848c0 35.296 28.672 63.872 64 63.872h678.016l-264.512 143.776c-5.76-10.592-16.576-18.048-29.504-18.048-18.784 0-33.984 15.2-33.984 33.92s15.2 33.92 33.984 33.92 33.984-15.2 33.984-33.952c0-4.48-0.96-8.672-2.56-12.608l380.576-147.040h132c35.328 0 64-28.608 64-63.872v-542.848c0-35.2-28.672-63.808-64-63.808zM896-0.992c35.328 0 64 28.608 64 63.872s-28.672 63.84-64 63.84c-35.36 0-64-28.608-64-63.84 0-35.296 28.64-63.872 64-63.872zM704-0.352c35.328 0 64 28.608 64 63.872s-28.672 63.84-64 63.84-64-28.608-64-63.84c0-35.264 28.672-63.872 64-63.872zM336 478.624c-132.544 0-240-107.232-240-239.456 0-132.288 107.456-239.488 240-239.488 132.576 0 240 107.232 240 239.488 0 132.224-107.424 239.456-240 239.456zM960 478.624h-320v-95.776h176l32 63.84 32-63.84h80v95.776zM512 191.264h25.888c-2.624-11.040-6.176-21.664-10.496-31.936h-15.392v31.936zM512 255.104h30.368c0.448-5.344 1.632-10.464 1.632-15.936s-1.184-10.624-1.632-15.968h-30.368v31.904zM512 318.976h15.744c4.32-10.176 7.328-20.992 9.984-31.936h-25.728v31.936zM448 350.912v31.936h32v-31.936h-32zM384 63.52h32v-15.328c-10.272-4.256-20.96-7.712-32-10.4v25.728zM384 127.36h32v-31.936h-32v31.936zM384 191.264h32v-31.936h-32v31.936zM384 255.104h32v-31.904h-32v31.904zM384 318.976h32v-31.936h-32v31.936zM384 382.848h32v-31.936h-32v31.936zM384 440.448c11.008-2.688 21.728-6.144 32-10.4v-15.296h-32v25.696zM320 33.28v30.24h32v-30.784c-5.312-0.416-10.56-1.152-16-1.152-5.504 0-10.624 1.248-16 1.696zM320 127.36h32v-31.936h-32v31.936zM320 191.264h32v-31.936h-32v31.936zM320 255.104h32v-31.904h-32v31.904zM320 318.976h32v-31.936h-32v31.936zM320 382.848h32v-31.936h-32v31.936zM320 444.992c5.376 0.448 10.496 1.696 16 1.696 5.44 0 10.688-0.736 16-1.152v-30.784h-32v30.24zM256 63.52h32v-25.472c-10.944 2.72-21.792 5.824-32 10.144v15.328zM256 127.36h32v-31.936h-32v31.936zM256 191.264h32v-31.936h-32v31.936zM256 255.104h32v-31.904h-32v31.904zM256 318.976h32v-31.936h-32v31.936zM256 382.848h32v-31.936h-32v31.936zM256 429.984c10.208 4.384 21.056 7.456 32 10.208v-25.44h-32v15.232zM192 127.36h32v-31.936h-32v31.936zM192 191.264h32v-31.936h-32v31.936zM192 255.104h32v-31.904h-32v31.904zM192 318.976h32v-31.936h-32v31.936zM192 382.848h32v-31.936h-32v31.936zM480 287.040h-32v31.936h32v-31.936zM480 223.2h-32v31.904h32v-31.904zM480 159.328h-32v31.936h32v-31.936zM480 95.424h-32v31.936h32v-31.936zM134.112 191.264h25.888v-31.936h-15.36c-4.32 10.272-7.904 20.896-10.528 31.936zM128 239.168c0 5.472 1.216 10.592 1.632 15.936h30.368v-31.904h-30.368c-0.448 5.344-1.632 10.496-1.632 15.968zM144.256 318.976h15.744v-31.936h-25.728c2.656 10.944 5.664 21.728 9.984 31.936zM256-128.064c0-17.632-14.304-31.936-32-31.936h-64c-17.664 0-32 14.304-32 31.936s0 31.936 0 31.936h128c0 0 0-14.304 0-31.936zM928-128.064c0-17.632-14.304-31.936-32-31.936h-64c-17.696 0-32 14.304-32 31.936s0 31.936 0 31.936h128c0 0 0-14.304 0-31.936z" />
<glyph unicode="&#xe947;" glyph-name="printer" d="M832 96h-64v64h32v64h-608v-64h32v-64h-64c-17.664 0-32 14.336-32 32v320c0 30.944 128 64 352 64 11.872 0 22.368 0 32 0 222.016 0 352-32.32 352-64v-320c0-17.664-14.304-32-32-32zM752 416c-26.496 0-48-21.504-48-48s21.504-48 48-48 48 21.504 48 48-21.504 48-48 48zM256 704c0 17.696 14.336 32 32 32h416c17.696 0 32-14.304 32-32v-160h-480v160zM736-96c0-17.664-14.304-32-32-32h-416c-17.664 0-32 14.336-32 32v288h480v-288zM672 160h-352v-32h352v32zM672 96h-352v-32h352v32zM672 32h-352v-32h352v32zM672-32h-352v-32h352v32z" />
<glyph unicode="&#xe948;" glyph-name="atom" d="M789.984 318.816c73.376-79.136 106.24-156.992 77.728-206.912-28.448-49.792-111.392-60.064-215.616-35.648-31.2-104.288-81.728-172.384-138.912-172.384-57.248 0-107.744 68.32-138.88 172.896-105.376-25.12-189.312-15.040-217.984 35.136-28.512 49.92 4.384 127.872 77.76 207.104-74.784 79.872-108.448 158.72-79.68 209.024 28.8 50.432 113.536 60.384 219.648 34.784 31.168 104.8 81.856 173.312 139.168 173.312 57.28 0 107.808-68.288 138.944-172.832 105.12 24.96 188.928 14.848 217.568-35.264 28.672-50.336-5.024-129.248-79.744-209.216zM184.064 510.688c-22.016-38.528 8.352-101.696 72.64-168.48 26.208 25.568 56.384 50.944 89.984 75.328 4.096 40.512 10.336 78.944 18.88 113.92-89.824 23.072-159.392 17.92-181.504-20.768zM343.072 372.448c-23.040-17.536-44.064-35.328-62.912-53.088 19.104-17.856 39.712-35.776 63.040-53.44-0.96 17.76-1.632 35.712-1.632 54.080 0 17.792 0.576 35.264 1.504 52.448zM346.656 220.992c-33.632 24.288-63.712 49.6-90.016 75.072-63.136-66.176-92.448-128.608-70.624-166.816 21.984-38.432 90.816-43.776 179.84-21.184-8.544 34.784-15.136 72.608-19.2 112.928zM642.848 197.28c-14.272-9.376-28.864-18.592-44.064-27.456-15.424-8.992-30.848-17.248-46.208-25.12 26.336-11.2 52.096-20.96 76.544-28.448 5.728 25.088 10.176 52.448 13.728 81.024zM513.152-61.44c43.808 0 82.688 57.12 107.84 145.824-34.72 9.984-71.392 23.872-108.768 40.768-36.704-16.672-72.608-30.080-106.784-40.096 25.088-88.928 63.904-146.496 107.712-146.496zM397.536 117.056c23.744 7.392 48.576 16.576 74.112 27.456-15.424 7.904-30.944 16.256-46.432 25.28-14.368 8.416-28.192 17.056-41.728 25.92 3.488-28.064 8.448-53.952 14.048-78.656zM383.552 443.008c14.112 9.248 28.576 18.336 43.584 27.136 14.816 8.672 29.632 16.64 44.416 24.256-25.632 10.944-50.72 20.608-74.592 28.064-5.568-24.64-9.888-51.488-13.408-79.456zM513.152 701.44c-43.936 0-83.008-57.664-108.128-147.008 34.144-10.048 70.112-23.84 106.752-40.544 37.504 17.184 74.176 30.912 109.088 41.088-25.088 88.864-63.872 146.464-107.712 146.464zM628.832 523.040c-24.576-7.648-50.24-17.12-76.736-28.512 14.88-7.648 29.824-15.68 44.736-24.416 16.064-9.376 31.424-19.136 46.432-29.056-3.52 29.28-8.608 56.32-14.432 81.984zM647.68 396.672c-21.44 14.912-44.096 29.472-68.032 43.392-22.912 13.376-45.632 25.056-68.096 35.968-22.176-10.816-44.672-22.816-67.232-35.968-22.816-13.28-44.608-27.168-65.12-41.312-1.984-25.504-3.328-51.616-3.328-78.784 0-27.456 1.12-54.176 3.104-79.968 20.064-13.792 41.248-27.264 63.392-40.192 23.552-13.728 46.912-25.728 70.016-36.864 22.816 11.072 45.984 23.328 69.184 36.864 23.008 13.408 44.864 27.36 65.568 41.664 1.952 25.408 3.328 51.424 3.328 78.496 0 26.304-0.96 51.936-2.784 76.704zM837.984 129.248c21.824 38.144-7.744 100.48-70.752 166.496-25.632-24.768-54.976-49.344-87.552-72.992-4.096-41.024-10.432-79.968-19.136-115.328 87.872-21.92 155.68-16.256 177.44 21.824zM683.296 267.84c22.048 16.832 42.272 33.92 60.512 50.912-18.304 17.28-38.048 34.656-60.384 51.776 0.8-16.608 1.376-33.408 1.376-50.528-0.032-17.728-0.608-35.072-1.504-52.16zM839.904 510.688c-21.952 38.368-90.56 43.808-179.36 21.312 8.736-35.776 15.488-74.848 19.52-116.512 32.608-23.84 61.76-48.64 87.296-73.568 64.416 66.912 94.624 130.176 72.544 168.768zM518.4 254.016c-37.664 0-68.192 30.816-68.192 68.864 0 38.016 30.528 68.864 68.192 68.864 37.632 0 68.16-30.848 68.16-68.864 0-38.080-30.528-68.864-68.16-68.864z" />
<glyph unicode="&#xe949;" glyph-name="shipping" d="M535.104 132.384c-14.592 13.824-31.616 24.448-50.208 31.072l-38.976 151.776 464.192 129.856 49.728-193.792-424.736-118.912zM387.328 543.392l309.472 86.56 49.76-193.856-309.44-86.56-49.792 193.856zM401.216 166.368c-8.64-2.432-16.672-5.888-24.48-9.696l-136.448 531.68h-51.328c-5.152-11.232-15.936-19.136-28.672-19.136h-64.064c-17.696 0-32.032 15.008-32.032 33.472s14.336 33.44 32.032 33.44h64.064c10.752 0 19.776-5.888 25.6-14.304h98.56v-1.632l1.472 0.448 141.12-549.856c-8.608-0.8-17.216-2.048-25.824-4.416zM409.504 134.048c59.808 16.736 121.28-20.32 137.312-82.816 16.032-62.432-19.456-126.624-79.296-143.36-59.808-16.672-121.28 20.384-137.312 82.816s19.488 126.624 79.296 143.36zM392.64 5.952c6.848-26.752 33.216-42.624 58.848-35.424s40.832 34.688 33.984 61.44c-6.848 26.752-33.216 42.624-58.848 35.488-25.664-7.2-40.864-34.72-33.984-61.504zM955.84 137.568l-373.888-104.576c-0.672 8.928-1.92 17.952-4.224 26.944-2.272 8.992-5.568 17.44-9.248 25.568l371.936 104 15.424-51.936z" />
<glyph unicode="&#xe94a;" glyph-name="magnet" d="M496-128.992c-139.68 0-335.264 145.696-335.264 291.328 0 62.4 11.712 145.024 25.12 221.504h164.192c-8.672-67.168-15.68-142.592-15.68-217.504 11.968-67.84 107.744-119.712 161.632-119.712s145.696 49.888 161.632 119.712c0 75.328-7.264 150.624-16.224 217.504h163.584c13.952-77.568 26.24-161.408 26.24-223.456 0.032-143.712-195.552-289.376-335.232-289.376zM607.744 575.424h157.664c0 0 17.216-71.104 34.016-159.648h-162.24c-13.792 93.184-29.44 159.648-29.44 159.648zM607.744 703.168h159.616v-31.936h-159.616v31.936zM382.24 575.424c0 0-14.944-66.72-28.128-159.648h-162.88c16.448 88.672 33.344 159.648 33.344 159.648h157.664zM320.384 609.376h-31.904v63.84h-63.872v31.936h63.872v63.84h31.904v-63.84h63.872v-31.936h-63.872v-63.84z" />
<glyph unicode="&#xe94b;" glyph-name="navigation" horiz-adv-x="1056" d="M1012 385.984c-16.256 0-55.392-18.016-83.296-32h-63.52c-3.84 81.376-36.512 155.040-88.16 211.2l41.984 42.016c29.824 9.76 73.664 25.568 85.728 37.632 18.752 18.752 18.752 49.152 0 67.904-18.752 18.72-49.12 18.72-67.872 0-11.488-11.488-26.432-51.968-36.256-81.536l-44.896-44.864c-56.416 51.36-130.24 83.584-211.712 86.976v59.424c14.144 28 33.984 70.208 33.984 87.264 0 26.496-21.504 48-48 48s-48-21.504-48-48c0-16.256 18.016-55.392 32-83.296v-63.52c-81.376-3.84-155.072-36.48-211.232-88.16l-41.984 42.016c-9.76 29.824-25.6 73.696-37.664 85.76-18.72 18.72-49.12 18.72-67.872 0-18.752-18.752-18.752-49.152 0-67.904 11.488-11.52 51.936-26.432 81.504-36.256l44.896-44.896c-50.912-55.968-83.008-129.056-86.816-209.728h-63.52c-27.872 13.984-67.008 32-83.296 32-26.528 0-48-21.504-48-48s21.472-48 48-48c17.056 0 59.264 19.84 87.264 33.984h59.456c3.36-81.472 35.616-155.296 86.944-211.712l-44.864-44.896c-29.6-9.824-70.016-24.736-81.536-36.256-18.752-18.752-18.752-49.152 0-67.872 18.752-18.752 49.152-18.752 67.872 0 12.064 12.032 27.872 55.872 37.664 85.696l42.016 42.016c56.16-51.648 129.824-84.32 211.2-88.16v-63.52c-13.984-27.872-32-67.040-32-83.296 0-26.496 21.504-48 48-48s48 21.504 48 48c0 17.056-19.84 59.264-33.984 87.264v59.456c81.472 3.328 155.296 35.584 211.712 86.912l44.896-44.864c9.824-29.568 24.736-70.016 36.256-81.504 18.752-18.752 49.12-18.752 67.872 0 18.752 18.72 18.752 49.12 0 67.872-12.064 12.064-55.904 27.872-85.728 37.664l-41.984 41.984c52.096 56.64 84.864 131.040 88.256 213.216h59.456c28-14.176 70.176-33.984 87.264-33.984 26.496 0 48 21.504 48 48s-21.536 47.968-48.032 47.968zM326.88 518.464l113.664-113.664c-10.944-14.624-18.208-31.904-20.96-50.784h-160.768c3.68 63.008 28.672 120.16 68.064 164.448zM258.688 324h160.704c2.496-19.68 9.856-37.696 21.184-52.8l-113.696-113.664c-39.776 44.736-64.896 102.656-68.192 166.464zM513.984 66.816c-63.744 3.712-121.44 29.248-165.952 69.44l113.6 113.6c14.944-11.584 32.736-19.392 52.352-22.208v-160.832zM513.984 448.384c-19.616-2.816-37.408-10.656-52.352-22.24l-113.6 113.6c44.512 40.16 102.208 65.728 165.952 69.44v-160.8zM801.184 353.984h-160.8c-2.816 19.584-10.624 37.408-22.208 52.352l113.6 113.6c40.16-44.48 65.696-102.208 69.408-165.952zM710.464 541.12l-113.664-113.696c-15.136 11.328-33.12 18.688-52.8 21.184v160.704c63.808-3.296 121.728-28.416 166.464-68.192zM544 66.72v160.672c19.68 2.496 37.696 9.856 52.8 21.152l113.664-113.664c-44.736-39.776-102.656-64.896-166.464-68.16zM731.744 156.064l-113.6 113.6c12 15.424 19.872 33.984 22.432 54.336h160.672c-3.232-64.544-28.896-123.008-69.504-167.936z" />
<glyph unicode="&#xe94c;" glyph-name="usb2" d="M253.728 333.248l203.648 203.648 102.496-102.496c-8.512-17.824-5.568-39.712 9.216-54.464 14.752-14.784 36.672-17.728 54.464-9.248l105.312-105.312-203.616-203.648-271.52 271.52zM636.96 447.808c-14.752 14.752-36.672 17.728-54.464 9.216l-102.496 102.496 158.368 158.368c24.992 24.992 65.536 24.992 90.496 0l181.056-180.992c24.96-24.992 24.96-65.536 0-90.496l-158.4-158.4-105.344 105.312c8.512 17.856 5.568 39.744-9.216 54.496zM276.352-96.672l-181.024 180.992 181.024 181.024 181.024-181.024-181.024-180.992zM232.512 85.792l-45.248 45.248-46.688-46.688 45.28-45.248 46.656 46.688zM323.008-4.736l-45.248 45.248-46.656-46.656 45.248-45.248 46.656 46.656z" />
<glyph unicode="&#xe94d;" glyph-name="ruler2" d="M193.856 613.28l21.952-21.952-89.856-89.856 70.016-70.016 90.272 90.272 20.512-20.512-90.272-90.304 69.12-69.088 205.312 205.312-249.984 248.512-204.576-204.576 67.648-67.68 89.856 89.888zM739.168 298.912l-205.312-205.344 69.088-69.088 90.304 90.272 20.512-20.512-90.272-90.272 70.016-70.016 89.824 89.856 21.952-21.952-89.824-89.856 67.616-67.648 204.608 204.608-248.512 249.952zM954.304 561.568c24.992 25.024 25.184 65.44 0.384 90.272l-112.384 112.352c-24.8 24.8-65.248 24.672-90.24-0.384l-69.44-69.44 202.24-202.24 69.44 69.44zM108.736 1.856l83.936-83.936 169.088 60.064-192.96 192.96-60.064-169.088zM660.8 673.824l-476.32-476.352 203.808-203.808 476.352 476.352-203.84 203.808zM277.024 197.888l383.392 383.392 22.336-22.336-383.424-383.424-22.304 22.368zM321.696 153.184l383.36 383.392 22.336-22.336-383.392-383.36-22.304 22.304zM366.368 108.544l383.392 383.392 22.304-22.336-383.36-383.392-22.336 22.336zM62.528-128.32l98.112 35.744-62.368 62.368-35.744-98.112z" />
<glyph unicode="&#xe94e;" glyph-name="factory" horiz-adv-x="1038" d="M726.828 820.426c-7.565-9.791-9.346-20.471-11.571-83.22-2.67-71.204-11.571-386.726-11.571-417.432 0-12.906-2.67-17.356-12.906-23.586-7.12-4.006-14.24-7.565-15.576-7.565s-2.67 33.822-2.67 74.764c0 41.388-1.335 76.545-3.116 77.88-1.335 1.78-4.896 1.335-8.010-1.335-8.455-7.12-291.046-151.309-296.387-151.309-2.225 0-4.006 34.712-4.006 77.435v77.88l-69.868-47.618c-38.717-26.256-76.545-51.622-84.11-56.518s-36.047-23.586-63.193-41.832l-49.843-33.376v-456.595h849.996v635.94l-16.466-9.346c-9.346-5.34-21.807-13.35-27.592-17.801s-12.906-8.010-15.576-8.010c-4.006 0-6.675 52.958-10.236 198.926-4.896 184.685-5.785 199.371-13.795 210.051-8.455 11.126-9.791 11.571-66.754 12.906-57.408 1.335-57.853 0.89-66.754-10.236zM365.468 110.612v-44.502h-173.559v89.005h173.559v-44.502zM619.131 110.612v-44.502h-173.559v89.005h173.559v-44.502zM868.345 110.612v-44.502h-173.559v89.005h173.559v-44.502zM365.468-58.498v-44.502h-173.559v89.005h173.559v-44.502zM618.241-57.163l-1.335-43.612-85.445-1.335-85.89-0.89v89.005h174.004l-1.335-43.167zM868.345-58.498v-44.502h-173.559v89.005h173.559v-44.502z" />
<glyph unicode="&#xe94f;" glyph-name="plant2" horiz-adv-x="1367" d="M1037.838 753.955c-23.801-5.535-48.709-26.569-61.44-50.37-4.982-9.963-7.749-33.211-7.749-66.975 0-49.816-0.554-52.030-13.838-58.119l-13.838-6.642v-104.061c0-57.565-1.661-134.504-3.321-171.589-3.321-57.565-4.982-66.975-13.838-69.189-7.749-2.214-10.517-9.41-11.624-37.639-1.661-38.192-9.963-46.495-23.801-24.908-12.177 18.819-35.978 136.164-35.978 179.338 0 43.728 13.838 106.275 31.55 141.699 11.070 21.587 12.177 27.676 6.089 31.55-39.853 24.908-283.952 25.462-324.359 0-5.535-3.321-3.321-12.177 9.963-39.853 23.248-49.816 29.336-90.776 25.462-161.072-2.768-55.905-17.159-126.201-25.462-126.201-2.214 0-5.535 5.535-7.196 12.731-1.661 6.642-9.41 37.085-17.712 67.529-21.587 81.92-24.908 182.659-8.856 246.314 6.642 26.015 22.141 66.975 34.318 91.33 11.624 24.355 21.587 47.602 21.587 51.477 0 21.587-95.758 35.978-240.778 35.978-147.788 0-240.778-14.391-240.778-36.532 0-4.428 8.856-27.122 19.373-50.37 37.639-80.813 44.281-109.042 44.281-191.516 0-85.241-6.642-121.773-44.835-237.457-33.764-102.954-64.208-166.608-79.706-166.608-11.070 0-11.070-2.214-9.963-81.92l1.661-81.366h1234.335l1.107 150.556c0.554 150.556 0.554 150.556-11.070 152.216-11.070 1.661-12.177 5.535-13.838 38.746-1.107 27.122-3.875 37.639-8.856 37.639-8.303 0-11.070 47.602-17.712 285.059-2.768 104.061-4.982 128.969-12.177 137.271-4.428 4.982-11.624 9.41-16.052 9.41s-7.196 6.089-7.196 16.052c0 17.712-18.266 47.049-39.299 62.547-26.015 19.373-73.617 25.462-118.452 14.945zM1117.544 702.478c16.605-8.856 33.211-37.639 23.248-40.96-3.321-1.107-10.517-6.089-16.605-11.070-9.963-8.856-11.070-21.587-16.052-213.103-4.428-177.124-6.089-204.246-13.838-210.335-6.089-4.428-9.41-17.159-10.517-39.299-1.107-19.926-4.428-33.764-8.303-35.425-5.535-1.661-7.196 7.749-7.196 34.871 0 32.104-1.661 37.639-11.070 39.853-14.391 3.875-15.498 17.159-18.819 195.39-3.321 137.825-3.875 147.235-14.391 156.091-8.856 7.196-11.070 15.498-11.070 47.049 0 40.96 9.963 63.654 34.318 76.938 17.159 9.963 51.477 9.41 70.296 0z" />
</font>
</defs>
</svg>
