<?xml version="1.0" encoding="utf-8"?>
<!-- Generator: Adobe Illustrator 15.0.0, SVG Export Plug-In . SVG Version: 6.00 Build 0)  -->
<!DOCTYPE svg PUBLIC "-//W3C//DTD SVG 1.1//EN" "http://www.w3.org/Graphics/SVG/1.1/DTD/svg11.dtd">
<svg version="1.1" id="图层_1" xmlns="http://www.w3.org/2000/svg" xmlns:xlink="http://www.w3.org/1999/xlink" x="0px" y="0px"
	 width="20px" height="20px" viewBox="0 0 20 20" enable-background="new 0 0 20 20" xml:space="preserve">
<polygon fill="#A7A8A6" points="0,0 0,15 5,20 20,20 20,0 "/>
<title>acc_default_module</title>
<desc>Created with Sketch.</desc>
<g>
	<path fill="#FFFFFF" d="M13.835,8.93c-0.41,0.558-0.816,1.031-1.212,1.417c-0.782,0.753-1.558,1.127-2.329,1.127
		c-0.671,0-1.191-0.244-1.564-0.737c-0.236-0.317-0.355-0.692-0.355-1.128c0-1.07,0.437-2.25,1.305-3.545
		c0.969-1.438,2.135-2.541,3.502-3.314c0.893-0.499,1.758-0.752,2.59-0.752c0.521,0,0.956,0.126,1.303,0.376
		c0.301,0.223,0.424,0.474,0.447,0.753c0.053,0.649-0.512,0.901-0.512,0.901c0.305,0.106,0.475,0.36,0.475,0.517
		c0,0.203-0.173,0.535-0.52,0.997c-0.362,0.474-0.723,1.101-1.082,1.882c-0.383,0.83-1.223,2.253-0.814,2.546
		c0.29,0.206,0.861-0.221,1.486-0.528c0.225-0.11,0.883-0.154,1.266,0.005c0.261,0.113,0.537,0.333,0.547,0.623
		c0.002,0.088-0.093,0.662-0.575,0.658c-0.239-0.004-0.57-0.115-0.65-0.147c-0.402-0.142-1.542,1.222-2.785,0.72
		c-0.51-0.202-0.595-0.847-0.595-1.417C13.761,9.692,13.781,9.372,13.835,8.93z M17.144,4.029c-0.258-0.005-0.71-0.157-0.979-0.306
		c-0.175-0.099-0.847-0.176-1.045-0.176c-0.944,0-1.968,0.641-3.076,1.925c-1.214,1.417-1.822,2.618-1.822,3.601
		c0,0.241,0.059,0.424,0.176,0.55c0.119,0.125,0.295,0.188,0.531,0.188c0.595,0,1.29-0.492,2.087-1.477
		c0.445-0.538,1-1.336,1.656-2.386c0.438-0.685,0.75-1.138,0.949-1.359C15.72,4.473,16.065,4.005,17.144,4.029z"/>
</g>
<polygon fill="#CCCCCC" points="5,15 0,15 5,20 "/>
</svg>
