<?xml version="1.0" encoding="utf-8"?>
<!-- Generator: Adobe Illustrator 15.0.0, SVG Export Plug-In . SVG Version: 6.00 Build 0)  -->
<!DOCTYPE svg PUBLIC "-//W3C//DTD SVG 1.1//EN" "http://www.w3.org/Graphics/SVG/1.1/DTD/svg11.dtd">
<svg version="1.1" id="图层_1" xmlns="http://www.w3.org/2000/svg" xmlns:xlink="http://www.w3.org/1999/xlink" x="0px" y="0px"
	 width="30px" height="30px" viewBox="0 0 30 30" enable-background="new 0 0 30 30" xml:space="preserve">
<title>acc_default_module</title>
<desc>Created with Sketch.</desc>
<g id="Page-1">
	<g id="acc_default_module">
		<path id="Fill-1" fill="#999999" d="M27.771,8.621c0-0.006-0.001-0.013-0.001-0.019c-0.021-0.28-0.17-0.534-0.41-0.676
			L15.99,1.217c-0.26-0.151-0.579-0.151-0.836,0L3.787,7.926c-0.24,0.142-0.389,0.396-0.41,0.676c0,0.006-0.002,0.011-0.002,0.019
			c0,0.015-0.005,0.03-0.005,0.046v13.421c0,0.305,0.16,0.588,0.419,0.74l11.367,6.711c0.01,0.006,0.021,0.008,0.03,0.014
			c0.045,0.025,0.092,0.044,0.143,0.06c0.017,0.006,0.032,0.011,0.049,0.015c0.064,0.016,0.13,0.027,0.197,0.027
			s0.134-0.012,0.196-0.027c0.018-0.004,0.033-0.009,0.05-0.015c0.049-0.016,0.098-0.036,0.143-0.06
			c0.009-0.006,0.021-0.008,0.03-0.014l11.367-6.711c0.26-0.15,0.419-0.434,0.419-0.74V8.667
			C27.776,8.651,27.771,8.636,27.771,8.621L27.771,8.621z M15.573,2.945l9.737,5.749l-9.737,5.747L5.834,8.691L15.573,2.945z
			 M5.042,10.199l9.065,5.352c-0.036,0.003-0.07,0.015-0.102,0.035l-0.945,0.559c-0.134,0.08-0.178,0.254-0.102,0.391
			c0.051,0.092,0.145,0.143,0.243,0.143c0.046,0,0.095-0.012,0.139-0.039l0.945-0.559c0.124-0.073,0.167-0.227,0.112-0.357
			l0.34,0.201V27.32l-9.696-5.727V10.199z M16.409,27.316V15.92l0.34-0.201c-0.055,0.131-0.012,0.286,0.112,0.359l0.945,0.559
			c0.043,0.027,0.092,0.039,0.139,0.039c0.096,0,0.189-0.053,0.242-0.143c0.077-0.137,0.031-0.311-0.102-0.39l-0.945-0.56
			c-0.031-0.019-0.066-0.03-0.101-0.035l9.065-5.352v11.395L16.409,27.316z"/>
		<path id="Fill-2" fill="#999999" d="M23.76,19.492l-0.945-0.56c-0.133-0.081-0.304-0.032-0.381,0.104
			c-0.076,0.137-0.032,0.311,0.102,0.389l0.945,0.56c0.043,0.026,0.092,0.038,0.139,0.038c0.096,0,0.189-0.052,0.242-0.143
			C23.939,19.745,23.893,19.57,23.76,19.492L23.76,19.492z"/>
		<path id="Fill-3" fill="#999999" d="M25.652,20.609l-0.945-0.559c-0.133-0.079-0.303-0.033-0.381,0.104
			c-0.076,0.137-0.031,0.311,0.102,0.39l0.945,0.559c0.043,0.026,0.092,0.038,0.139,0.038c0.096,0,0.189-0.052,0.242-0.142
			C25.83,20.86,25.786,20.688,25.652,20.609L25.652,20.609z"/>
		<path id="Fill-4" fill="#999999" d="M21.868,18.377l-0.944-0.56c-0.133-0.079-0.305-0.032-0.381,0.104
			c-0.078,0.136-0.032,0.311,0.101,0.389l0.944,0.559c0.044,0.027,0.092,0.039,0.14,0.039c0.096,0,0.19-0.053,0.242-0.143
			C22.049,18.629,22.002,18.455,21.868,18.377L21.868,18.377z"/>
		<path id="Fill-5" fill="#999999" d="M19.977,17.261l-0.943-0.56c-0.135-0.08-0.305-0.031-0.382,0.104
			c-0.077,0.137-0.032,0.312,0.102,0.39l0.944,0.559c0.043,0.027,0.092,0.039,0.139,0.039c0.096,0,0.189-0.053,0.242-0.143
			C20.158,17.512,20.11,17.338,19.977,17.261L19.977,17.261z"/>
		<path id="Fill-6" fill="#999999" d="M6.44,20.051l-0.945,0.557c-0.133,0.078-0.178,0.253-0.102,0.39
			c0.051,0.092,0.145,0.142,0.243,0.142c0.047,0,0.096-0.012,0.139-0.037l0.945-0.558c0.134-0.079,0.178-0.253,0.102-0.39
			C6.743,20.018,6.572,19.972,6.44,20.051L6.44,20.051z"/>
		<path id="Fill-7" fill="#999999" d="M12.114,16.701l-0.946,0.56c-0.133,0.079-0.179,0.253-0.102,0.39
			c0.051,0.092,0.145,0.143,0.242,0.143c0.047,0,0.096-0.012,0.139-0.039l0.946-0.559c0.133-0.078,0.179-0.253,0.102-0.39
			C12.417,16.67,12.247,16.621,12.114,16.701L12.114,16.701z"/>
		<path id="Fill-8" fill="#999999" d="M8.332,18.935l-0.944,0.558c-0.133,0.078-0.179,0.253-0.102,0.389
			c0.051,0.093,0.145,0.143,0.242,0.143c0.047,0,0.096-0.012,0.139-0.038l0.944-0.558c0.133-0.078,0.179-0.252,0.102-0.389
			C8.634,18.902,8.463,18.854,8.332,18.935L8.332,18.935z"/>
		<path id="Fill-9" fill="#999999" d="M10.223,17.817l-0.944,0.56c-0.134,0.078-0.178,0.252-0.102,0.389
			c0.051,0.092,0.145,0.143,0.243,0.143c0.046,0,0.096-0.012,0.139-0.039l0.944-0.559c0.134-0.078,0.179-0.253,0.102-0.389
			C10.525,17.785,10.354,17.738,10.223,17.817L10.223,17.817z"/>
	</g>
</g>
</svg>
