<?xml version="1.0" encoding="utf-8"?>
<!-- Generator: Adobe Illustrator 15.0.0, SVG Export Plug-In . SVG Version: 6.00 Build 0)  -->
<!DOCTYPE svg PUBLIC "-//W3C//DTD SVG 1.1//EN" "http://www.w3.org/Graphics/SVG/1.1/DTD/svg11.dtd">
<svg version="1.1" id="图层_1" xmlns="http://www.w3.org/2000/svg" xmlns:xlink="http://www.w3.org/1999/xlink" x="0px" y="0px"
	 width="30px" height="30px" viewBox="0 0 30 30" enable-background="new 0 0 30 30" xml:space="preserve">
<title>acc_documents</title>
<desc>Created with Sketch.</desc>
<g id="Page-1_1_">
	<g id="acc_documents">
		<g id="Page-1" transform="translate(4.000000, 3.000000)">
			<polygon id="Fill-1" fill="#999999" points="4.088,14.984 13.286,14.984 13.286,13.49 4.088,13.49 			"/>
			<polygon id="Fill-2" fill="#999999" points="4.088,10.5 13.286,10.5 13.286,9.005 4.088,9.005 			"/>
			<polygon id="Fill-3" fill="#999999" points="4.088,6.015 13.286,6.015 13.286,4.521 4.088,4.521 			"/>
			<g id="Group-6" transform="translate(0.000000, 0.021056)">
				<g id="Clip-5">
				</g>
				<defs>
					<filter id="Adobe_OpacityMaskFilter" filterUnits="userSpaceOnUse" x="0" y="0.015" width="21.974" height="23.669">
						<feColorMatrix  type="matrix" values="1 0 0 0 0  0 1 0 0 0  0 0 1 0 0  0 0 0 1 0"/>
					</filter>
				</defs>
				<mask maskUnits="userSpaceOnUse" x="0" y="0.015" width="21.974" height="23.669" id="mask-2">
					<g filter="url(#Adobe_OpacityMaskFilter)">
						<polygon id="path-1" fill="#FFFFFF" points="0,23.684 21.974,23.684 21.974,0.015 0,0.015 						"/>
					</g>
				</mask>
				<path id="Fill-4" mask="url(#mask-2)" fill="#999999" d="M20.439,21.69c0,0.312-0.191,0.498-0.51,0.498H6.898
					c-0.319,0-0.511-0.186-0.511-0.498v-1.246h9.965c0.639,0,1.022-0.373,1.022-0.996V5.247h2.555c0.318,0,0.51,0.187,0.51,0.498
					V21.69z M1.533,18.452V2.008c0-0.312,0.191-0.499,0.511-0.499H15.33c0.319,0,0.512,0.187,0.512,0.499v16.443
					c0,0.311-0.192,0.498-0.512,0.498H2.044C1.725,18.95,1.533,18.762,1.533,18.452L1.533,18.452z M20.951,3.503h-3.576V1.011
					c0-0.623-0.384-0.996-1.022-0.996H1.022C0.383,0.015,0,0.389,0,1.011v18.437c0,0.623,0.383,0.997,1.022,0.997h3.577v2.242
					c0,0.623,0.383,0.997,1.022,0.997h15.33c0.639,0,1.022-0.374,1.022-0.997V4.499C21.974,3.876,21.59,3.503,20.951,3.503
					L20.951,3.503z"/>
			</g>
		</g>
	</g>
</g>
</svg>
