<?xml version="1.0" encoding="utf-8"?>
<!-- Generator: Adobe Illustrator 15.0.0, SVG Export Plug-In . SVG Version: 6.00 Build 0)  -->
<!DOCTYPE svg PUBLIC "-//W3C//DTD SVG 1.1//EN" "http://www.w3.org/Graphics/SVG/1.1/DTD/svg11.dtd">
<svg version="1.1" id="图层_1" xmlns="http://www.w3.org/2000/svg" xmlns:xlink="http://www.w3.org/1999/xlink" x="0px" y="0px"
	 width="30px" height="30px" viewBox="0 0 30 30" enable-background="new 0 0 30 30" xml:space="preserve">
<title>acc_default_module</title>
<desc>Created with Sketch.</desc>
<title>acc_default_module</title>
<desc>Created with Sketch.</desc>
<title>acc_default_module</title>
<desc>Created with Sketch.</desc>
<rect x="1.751" y="2.25" fill="#999999" width="8.688" height="8.687"/>
<rect x="19.105" y="2.427" fill="#999999" width="8.687" height="8.688"/>
<rect x="19.105" y="19.397" fill="#999999" width="8.687" height="8.688"/>
<polygon fill="#999999" points="24.626,14.475 24.626,11.87 22.17,11.87 22.17,14.475 19.105,14.475 23.396,18.768 27.688,14.475 
	"/>
<polygon fill="#999999" points="14.156,5.542 11.551,5.542 11.551,7.998 14.156,7.998 14.156,11.062 18.449,6.772 14.156,2.479 "/>
<polygon fill="#CCCCCC" points="18.449,23.061 14.156,18.768 14.156,21.83 11.551,21.83 7.75,21.83 7.75,11.438 5.375,11.438 
	5.375,21.83 5.375,23.06 5.375,24.287 11.551,24.287 14.156,24.287 14.156,27.352 "/>
</svg>
