<?xml version="1.0" encoding="utf-8"?>
<!-- Generator: Adobe Illustrator 15.0.0, SVG Export Plug-In . SVG Version: 6.00 Build 0)  -->
<!DOCTYPE svg PUBLIC "-//W3C//DTD SVG 1.1//EN" "http://www.w3.org/Graphics/SVG/1.1/DTD/svg11.dtd">
<svg version="1.1" id="图层_1" xmlns="http://www.w3.org/2000/svg" xmlns:xlink="http://www.w3.org/1999/xlink" x="0px" y="0px"
	 width="30px" height="30px" viewBox="0 0 30 30" enable-background="new 0 0 30 30" xml:space="preserve">
<rect x="2.244" y="2.273" fill="#FFFFFF" stroke="#999999" stroke-miterlimit="10" width="25.512" height="25.453"/>
<title>acc_default_module</title>
<desc>Created with Sketch.</desc>
<title>acc_default_module</title>
<desc>Created with Sketch.</desc>
<title>acc_default_module</title>
<desc>Created with Sketch.</desc>
<path fill="#999999" d="M18.693,18.152v-2.671H16.77c-0.133-0.526-0.34-1.022-0.61-1.477l1.358-1.361l-1.887-1.889l-1.362,1.361
	c-0.454-0.273-0.95-0.48-1.478-0.612V9.581l-2.67-0.001v1.925c-0.527,0.132-1.023,0.339-1.477,0.612l-1.361-1.36l-1.889,1.887
	l1.361,1.361c-0.272,0.454-0.48,0.95-0.612,1.478H4.22v2.671h1.924c0.132,0.527,0.339,1.022,0.612,1.478l-1.36,1.36l1.888,1.888
	l1.36-1.358c0.454,0.271,0.95,0.479,1.477,0.61v1.925h2.67V22.13c0.527-0.133,1.023-0.34,1.478-0.612l1.36,1.36l1.889-1.888
	l-1.359-1.361c0.271-0.453,0.479-0.949,0.611-1.477H18.693z M11.457,19.322c-1.413,0-2.559-1.146-2.559-2.559
	c0-1.414,1.146-2.561,2.559-2.561c1.414,0,2.559,1.146,2.559,2.561C14.016,18.177,12.871,19.322,11.457,19.322z"/>
<circle fill="#CCCCCC" cx="11.457" cy="16.816" r="1.125"/>
<line fill="none" stroke="#999999" stroke-miterlimit="10" x1="5.833" y1="6.417" x2="25.25" y2="6.417"/>
<line fill="none" stroke="#999999" stroke-miterlimit="10" x1="19.131" y1="9.5" x2="25.25" y2="9.5"/>
<line fill="none" stroke="#999999" stroke-miterlimit="10" x1="19.131" y1="11.917" x2="25.25" y2="11.917"/>
</svg>
