<?xml version="1.0" encoding="utf-8"?>
<!-- Generator: Adobe Illustrator 15.0.0, SVG Export Plug-In . SVG Version: 6.00 Build 0)  -->
<!DOCTYPE svg PUBLIC "-//W3C//DTD SVG 1.1//EN" "http://www.w3.org/Graphics/SVG/1.1/DTD/svg11.dtd">
<svg version="1.1" id="图层_1" xmlns="http://www.w3.org/2000/svg" xmlns:xlink="http://www.w3.org/1999/xlink" x="0px" y="0px"
	 width="30px" height="30px" viewBox="0 0 30 30" enable-background="new 0 0 30 30" xml:space="preserve">
<title>acc_default_module</title>
<desc>Created with Sketch.</desc>
<title>acc_default_module</title>
<desc>Created with Sketch.</desc>
<title>acc_default_module</title>
<desc>Created with Sketch.</desc>
<path fill="#999999" d="M3.368,13.603c1.942,0,3.778,0.392,5.434,1.074c1.655-0.683,3.491-1.074,5.433-1.074
	c2.527,0,4.879,0.655,6.875,1.771c1.939-1.085,4.22-1.723,6.667-1.757c-1.066-5.441-6.372-9.581-12.773-9.581
	c-6.416,0-11.731,4.159-12.78,9.619C2.602,13.625,2.981,13.603,3.368,13.603z"/>
<g>
	<path fill="#999999" d="M14.222,12.89h1.653v10.456c0,0.562-0.084,1.051-0.253,1.47c-0.169,0.419-0.409,0.771-0.724,1.051
		c-0.314,0.281-0.693,0.491-1.132,0.633c-0.439,0.143-0.933,0.214-1.479,0.214c-0.467-0.007-0.861-0.044-1.183-0.117
		c-0.321-0.069-0.562-0.144-0.724-0.219v-1.46c0.25,0.102,0.521,0.183,0.815,0.239c0.294,0.058,0.611,0.086,0.949,0.086
		c0.304,0,0.584-0.034,0.841-0.102c0.256-0.068,0.477-0.183,0.659-0.345c0.183-0.163,0.324-0.38,0.426-0.649
		c0.102-0.271,0.152-0.604,0.152-1.003V12.89z"/>
</g>
<ellipse fill="#999999" cx="15.031" cy="4" rx="0.844" ry="0.75"/>
</svg>
